<mxfile host="app.diagrams.net" agent="Mozilla/5.0 (Windows NT 10.0; Win64; x64) AppleWebKit/537.36 (KHTML, like Gecko) Chrome/134.0.0.0 Safari/537.36" version="26.2.5">
  <diagram name="Page-1" id="GriEUXKGGzCAGdaIb0Zo">
    <mxGraphModel dx="2494" dy="825" grid="1" gridSize="10" guides="1" tooltips="1" connect="1" arrows="1" fold="1" page="1" pageScale="1" pageWidth="827" pageHeight="1169" math="0" shadow="0">
      <root>
        <mxCell id="0" />
        <mxCell id="1" parent="0" />
        <mxCell id="rQX5XiQ9qI0IQF0qjAlr-45" value="" style="rounded=0;whiteSpace=wrap;html=1;" vertex="1" parent="1">
          <mxGeometry x="-40" y="200" width="1130" height="670" as="geometry" />
        </mxCell>
        <mxCell id="rQX5XiQ9qI0IQF0qjAlr-20" value="" style="rounded=1;whiteSpace=wrap;html=1;" vertex="1" parent="1">
          <mxGeometry x="620" y="358.31" width="220" height="189.88" as="geometry" />
        </mxCell>
        <mxCell id="rQX5XiQ9qI0IQF0qjAlr-4" value="" style="rounded=1;whiteSpace=wrap;html=1;" vertex="1" parent="1">
          <mxGeometry x="230" y="329.88" width="130" height="246.75" as="geometry" />
        </mxCell>
        <mxCell id="lpYAadG1dDYZqmT2P7qw-1" value="" style="sketch=0;points=[[0,0,0],[0.25,0,0],[0.5,0,0],[0.75,0,0],[1,0,0],[0,1,0],[0.25,1,0],[0.5,1,0],[0.75,1,0],[1,1,0],[0,0.25,0],[0,0.5,0],[0,0.75,0],[1,0.25,0],[1,0.5,0],[1,0.75,0]];outlineConnect=0;fontColor=#232F3E;fillColor=#7AA116;strokeColor=#ffffff;dashed=0;verticalLabelPosition=bottom;verticalAlign=top;align=center;html=1;fontSize=12;fontStyle=0;aspect=fixed;shape=mxgraph.aws4.resourceIcon;resIcon=mxgraph.aws4.s3;" parent="1" vertex="1">
          <mxGeometry x="38.75" y="416.5" width="73.5" height="73.5" as="geometry" />
        </mxCell>
        <mxCell id="rQX5XiQ9qI0IQF0qjAlr-1" value="&lt;font style=&quot;font-size: 14px;&quot;&gt;Car Rentals Raw Data in S3&lt;/font&gt;" style="text;html=1;align=center;verticalAlign=middle;whiteSpace=wrap;rounded=0;" vertex="1" parent="1">
          <mxGeometry x="30" y="500" width="91" height="30" as="geometry" />
        </mxCell>
        <mxCell id="rQX5XiQ9qI0IQF0qjAlr-2" value="" style="sketch=0;points=[[0,0,0],[0.25,0,0],[0.5,0,0],[0.75,0,0],[1,0,0],[0,1,0],[0.25,1,0],[0.5,1,0],[0.75,1,0],[1,1,0],[0,0.25,0],[0,0.5,0],[0,0.75,0],[1,0.25,0],[1,0.5,0],[1,0.75,0]];outlineConnect=0;fontColor=#232F3E;fillColor=#8C4FFF;strokeColor=#ffffff;dashed=0;verticalLabelPosition=bottom;verticalAlign=top;align=center;html=1;fontSize=12;fontStyle=0;aspect=fixed;shape=mxgraph.aws4.resourceIcon;resIcon=mxgraph.aws4.emr;" vertex="1" parent="1">
          <mxGeometry x="245" y="336.63" width="25" height="25" as="geometry" />
        </mxCell>
        <mxCell id="rQX5XiQ9qI0IQF0qjAlr-5" value="EMR Cluster" style="text;html=1;align=center;verticalAlign=middle;whiteSpace=wrap;rounded=0;" vertex="1" parent="1">
          <mxGeometry x="275" y="334.13" width="70" height="30" as="geometry" />
        </mxCell>
        <mxCell id="rQX5XiQ9qI0IQF0qjAlr-6" value="" style="shape=image;verticalLabelPosition=bottom;labelBackgroundColor=default;verticalAlign=top;aspect=fixed;imageAspect=0;image=data:image/png,iVBORw0KGgoAAAANSUhEUgAAAhsAAAE0CAYAAACFNfHDAAAACXBIWXMAAAsTAAALEwEAmpwYAAAgAElEQVR4nOzdd5xcddX48c/53jtlSzadmh7AUEIPSO9VehN4xAd9RCn6ICCoiF0Q0OenIih2pSk9BBABwZCEFFKogUA66T3Zze7OzL33e35/3NlNQtru7MzObvb7fr0C2ezMvWe2zD33W84RVVUcx3Ecx3FKxJQ7AMdxHMdxdmwu2XAcx3Ecp6RcsuE4juM4Tkn55Q7AcRzH2TFk1iwlmPEqudljsI11IIKfrsYbcgyJoUdQsfOQcofolIm4BaKO4zhOW6z/YDSZ135DtGo+Zt3HSJQjEh+PCFSx4mGqd8bscxqpQy+lasih5Q7ZaWcu2XAcx3EKkgUanv4e4ZQHiHIBohGeDbBAJD6KoCIYBZ8QVJHKniT2P5fKC+8g4SXL/RKcduKSDcdxHKfVcijrH7mecOrDCBKPYGAIxUdQPEIUQVBAsHgokCBCUcw+n6HmvB+R7D2w3C/FaQcu2XAcx3FaJQvUP/I1gjefIMDD2BAAg93m8xTBYBGUSHwYcBi9Lv0lqZ3cWo4dnduN4jiO47RK/VPfJZj2GFmSJKIsKdsYr8/YDqMRqhCSQNSSmP86DQ9+kczqhe0QtVNOLtlwHMdxWqz25XswE+5HEZJRA4aIBq8bFm+7z1UxIILkR0CsQnbJDDJP3EKu1IE7ZeWSDcdxHKdFGuZOIzfuPhrVxyp4WAJJ4mmIp8F2nx+v2xA8jaddQkmgquRm/ofal+4pdfhOGblkw3Ecx2mRhld+gdavxhKvz4jEw2AxWKxsf2TDECFo82MNFk9DVC3RuPuonz25xK/AKReXbDiO4zjbtf7tF4jmjge1JOz2RzFaQhECSSI2QtevJjv2fopzZKejccmG4ziOs12ZyY/gZVaTkTRWpGjH9TRCgdBLE01/nobRvy/asZ2OwyUbjuM4zjatn/0Gwfw3UAxGFS3SpUNQBIuKQWyIVQgm/pXs+pVFOb7Tcbhkw3Ecx9mm3JsjMQ2rifDwW7AQtDVUDIrEx1VLsHwm9c/dXtRzOOXnkg3HcRxnqwK1RAunYvJTJypNVUGLR9B80gEYn+jdUdR9MKao53DKyyUbjuM4zlZlP3gNXfbhdmqDFo+xATZTR8NLdxKFmXY6q1NqLtlwHMdxtiqcPR7Nrqe9GluYfO2OcP401v/7vvY5qVNyLtlwHMdxtipa8i7GFG/3yXbPJz6eBqRMRGbKIzQum91u53ZKxyUbjuM4zhaFjeuIVszBtuOlQlQxGhEq6JoFNLz0s3Y7t1M6LtlwHMdxtiizeCbUr4AiLwjdFpV8DxUEIxB+8CLr3/1Xu53fKQ2XbDiO4zhbpKvnQa6hPXMNYMOUjVUwufVkX76LIGhszyCcInPJhuM4jrNF4eLpoGG75hqaL/XV/LFCbvEM1r98bztG4RSbSzYcx3GcLbLLZ2I+cfFvX4oqeGqJ3niAzIp5ZYrDaSuXbDiO4zibyaFo/QriaY32SzYkP7bR/JEIFiWsW876l/5fu8XhFJdLNhzHcZzNhCs+xq5bjAWk3Up6bZnFxFti3/4HtVOeLmssTmFcsuE4juNsxi75gKhhTRmnUDbwNMTTgIw1NL7+B4L2XbHqFIFLNhzHcZzN6JIZSJBtU7IhFOciE4mPZ0NElWjeVOr/5aZTOhuXbDiO4zibCVfOJvJSeAV2eRUUW9kbr2ZnjEaIUnDiIiiR8QDF95TojQdoXD63oGM55eGSDcdxHGcztnYRCQ2IxC/o+UYgMfQouv/vP4l2GgYGjBa29iNeMJrvOquQWbeMhhfvKuhYTnkU9lPkOI7j7LCCxlrsqnn4mqORCjzCVh8jskKqZ3/8nv2pOvY61j/3HVKZdQRtvOwokCQgmP5P6qaOotsh57TpeB1NbukMcisXENUuI1w+C4lCwOKhqJfC32kopt8BVA7Yv9yhtopLNhzHcZxNZJbOhvrlhPgYolY/XwTE8zH9DwKg5sjLyXzwEuH7L1CMcqQhPomwkYbR91A5/CS8ZFWbj1ku2VULyM16g3DhFHLLZqFL38Nk1mKjCBFBMVgxeBohGpLBw6uoYX3/Q0ntezpVh1+Cn6go98vYLpdsOI7jOJuwaxdDGOUXZuaw+V4l2xdPdwhAuhvJXfZq/kzVUV9k3dwJpBpXEcT36YgKSGHJR6SCt/Rdasc9SM8Try7oGOUQZBvILXiH4MPRRPMnEa6ai9QthyiHjxKIj9X4q62qQETCZonEx+JhsNC4Bpn5b3KzXiX7zjNUnXg9VcOOK/dL2yaXbDiO4zib0CXTiaIQxMv/y/YTDdG4IodK/tHpniR67NL8+aphx5LZ/zNEEx7CGg8kwLOKlcIWjRoNCTSFTPwjDYdeRGVNn4KOU2q5TD25edOws1+nYc0iZMk7mFWzsLkMmARxyTLiEQyIF6Ww6fhP07oZiVM0IgQ0/tibM5aGFbOw5/+cbvuf2t4vr8VcsuE4juNsQhtW4YkSArY54di2psc1Vf+UPoPxK3ts8piqE77GulkT8FbNwaqghY5qiIdvA0QjwhVzybx4N5UX313QsYotB9iP3yacMZpg1WzC+VOx6xYR5HKkNRtXRBUPKwnQtlUxUYUQwatdTDjyBhr6Pk3lrntt/4ll4JINx3Ecp5liyS18By//UcufJwiK0YgIj+ROm1/00n0Hkzv2K4QjbyFQj8CAr61fE+JpRHxzb4j8JEx9mLoBI+h2+MWtPlZb5RR05Xyy86YSzp8E814nWr2EbLaBhNi4/LpakqqE4hPigQo+AaIWlbZvCg0lgaxdRnbcH6i8+GdFeFXF55INx3Ecp1mwciGsW5RffaEtviDGiUb82AgPU913i49LHX0lwdvPwJw3SGgGpWUjJ588VyBJPCIkihA1NI7/PRUHn9UuiyVzqxfRuOAdojkT0fkTya1bitSvQqMAIwZVxceCtUTiIZh8yXfFJ6RpbUsxEg0AVFERojnjyTSsI13ZvTjHLSKXbDiO4zjNgjVLkNz6+EKotPiCKFhCSZDSLFJZhT/4sC0+LgWEJ91A46IrsdlcwXtTBJqrb1iUaMF7NLxyHzWnf6PAI25dzkYEsycRfTSGzPzJyMqZULccay0igofGF3wENGpO0FQMRqM4EZB4Z4/kE4NiMvmRHrtuMeGcN2C/U4p6/GJwyYbjOI7TLFgxC3L1TesUW0wxGCxqDCSrSPYdtNXHVg07lnC/M1k/9Qn8/ALJ1hI2LEhFwZeI9ZMeIrHnsVQM3XKi01I5hWjhuwSzxhPMHY+unB03pWusxTOCanxepWnHSBzRhuA2JGhNyZppjrf4vWZUhAgw2Tp03dKiH78YXLLhOI7jNNOFb4G1BZQWl3i9hniYip5429kdkj7jVnLzJqGr57c6sdkSi+DXLabxpTupuOapVj8/t2QG2TlTycybRLRiJrpqDtK4lnjTr8USL+pUjddhdLRecHGyF3XYsuAu2XAcx3Ga2WUfICKtvpgajbDiYVCk92C87Vz2Uj13I3nCDWRGfhOJsm1OOEQtgSTReW+w/s3nqD7orG0+Prt2KcHcKYQzXyNc/hG64kOihnWgikeIqCXEJyc+qE9Ss/ga1x6xYpp33XQEkt88G0iSlJ8qdzhb5JINx3EcB4AgzGLrVhY8rWElgbE5ElvYibIllZ++nGD6P7HvvxhPhwBxy67WRxAvUA3xwojGiX8hedBZJDf6fC7MkXv/VYIFb2PnTURXziJoWIsfxZ1tLU21QiDEQ/ERLAmbRYBQklhJxaMHGsVlUjsIBTwist12I7H7vuUOZ4tcsuE4juMAEC6didYvLyjZUASjigh4fQa36DkJgfSJN5CZO5kotxas4qliC7iOa360IcIgc16n4bGbiQ48l9yqBQSzxqJL3sau+RhymXyeIBgg0jj6ptcQf0abRy5UPBTyUxT5bbodKNGAuHNKUgLSvfuR7ueSDcdxHKcDs/Vr0ShX0HNVBCMWk+6Jt8unWvy86iGHEIy4iPC1PyEGQqOYNsxQKIC1ZCb9jcap/8DYAGzUVEQ9TiM6zgxIUXhEZK2hasjR5Q5lqzrqWhLHcRynnYUrZkMUFrT40eLjYaH3YGTAAa16btUJXyPRZxAJIlrWg2XbmmqEJIJ6sBE23nTagVZZFJcRwfTsR2rEZ8sdyla5ZMNxHMcBwC54E7GFbUW1IvGah0SaCtO6S0uy+y54x11L1q/EL1JGoAiBJAjx81M8cVGtHY0AkSr+vmeQ2sZ243JzyYbjOI4DgK6eh7awF8onSX43qPYYUNDzexz9eZLDTsjvqxCMhvnmZIXFA+SfHY9pxPUtOtZai0I1JU9GLYjB6z2EqmO+XO6wtsklG47jOA6ZKCDK1CG0vlcJgEdIhIffe2DBMaSPvZZEZTWIIWja+UFY8PE2XvC5I/E0JJAkoUmSkojE8deT7sCjGuCSDcdxHAfQhe9h1y6E/PbP1vI0IjQJkn33KDiGqqGHYw77IgnNYfOlvlEpoMDYji2SuO6HigeHXEaPIy8vd0jb5ZINx3EcB7tsNqZxDVYK3KQogiSr8HYuPNkASJ9xM97gI6nQLIopSXnvzs5oRGSSVAwZQeUl/6/c4bSISzYcx3EcgpVz0DBLWGBFBCsepqoX/q4tK+i1NWk/iX/E/2CT3bDi42n595EImq+8ETdiaa7BEddLzT8qfowQ1/zwUEyR8iTReCVL85oTMUj3XUmdcRtJ0zkqWLhkw3Ecx8EunU6UqMLTwtZIWDySFdXgtb1cdrdDzkOGnUKCHGGhIy1FFOER4WHznVJELUYjPA0xahHIJxeCWsUYH9N9V7TPMHwTJyQbEobWiZ9hEEI8G6HGw1T2pPL8u6gadHBRX2cplf+76DiO45RVDsitXoCnYb4Ha+tvyQWL7jIcv0h385XHXEXdrNdINK7JV/ksH6MRKc2gQGBS5EwaD4tPiKoQigcVvanu0w/d52xSfYcgQ49E1y2g7vcX49evIpBEvvNr63hqCYwHWonxApIieCfcQLcO2EZ+W1yy4TiO08XZ1QvR+jUYtc3t01tDADEGf8gRRYupasgIMgd+lnD8/c3TGOURT5tkvUoU8DVEbBZJVWN7DcMbcDCVu+2LN2gEXr/hpPJhZtevIvfs99GGWrJSSTqqJypgykMx+BoAPsY3+Md8ne4nXl3UV9geXLLhOI7TxYWLP8BrWIFFUGl9IzQRMMkqUru0bb3GJ9Wc/S1WL5iKWTi53Uc3RJrGdwwBhpRnkR79kX4j8AcciD/wENKDDsZsIQkKgNrHbqZh1lQqbA48nzA/stHapEkFhASYkPQRV9PtM7cU4+W1O5dsOI7jdHF26QyiIIuIYBFMIV1XUxVIt75FjSuRrKTysMtoXPwWftBAYJL5RZjaokWjFhMXKs83QwlNIr/WIsKKQfHwNIgTLBFMvnOt2giDIN12RvsOpXL3A0kNOYLE0MNIVPbY7nnXv/gLzAfPUgFEJkFCc4i0bHTGaETOpEnYeL1KUjNxB9phn6HinB9u9/kdlUs2HMdxujhbtxwj5Lubtn5dgQB074fpuXuxQyN9xOdoeOc5mPkKgSSpiurImAq87RQfE7Q5qYgkHn9I2iyRGHImhUeIpyGRSWE0wuKh1X2gx+6k+x1EYs9jkMGHUlnTugRq3av3E479DaF6xKnbph1ltycSH6MRvubImjSRJPH77km3835UtPUw5eCSDcdxnC4uWD4TxIDVeKGntG6joqLQZw8SJbgYJgRqTrmRVcs/onLd/Hyi0IIqp7rhIi8oCQ2IjI+gpMnFO0z8Cvzuu+P325/EnifgDRlBYuc9Cr4wrn/7ecJX7sZk1gKJgo5h8fA1RyRJUuRI9tiNxEW/INW7sDLwHYVLNhzHcbqoSCMaPxxHsOi9fAeSwnaiAEi33YoY2aYqhh5G9RH/TfivHxGaJMkos91iXyoeCCQ1BBT1kthEJX5VD7xdh5McdhL+LntTMegAxBSWGGysfvZkGp77IZKtI8KPF9sWUJAsoRlCSaJiSPbqh3/uXVQPHdHm+MrNJRuO4zhdSE4t4cwJZD94meyssSRqF2PXr8GXuL27FdOqIloCWAtej51KFjNA1QnXsObtZ0gtfW+z3TKK5Kd/pHlhZ6QKfgrpvgu62wH4e51Mdc/dSew+DL/Ia0sy65bT8Ox3YfVcLEKEjyetqVeycZInGFF8DxJHfJFu+55Q1FjLxSUbjuM4O7jc+pXk5k4j+Og/hHPGEa2ahwQZjEjcnlwkLlglrWhapnE1TWMsNt0DM+jwkr6GhJ+k4piraXz6RjQM0HzG4UlcGQQLvmewld2h7zAqhhxFYo8j8QYeTCpVWdLY6p+5DV0wtXnZqtfC5nFx99YIgyUinuIREYzn451wI91P6HxbXLfGJRuO4zg7oOy6pQTz3iT44GXCOROwtQsxuUbUmA1FtxUKmzaJ78SteBhVvMpupHYZUtT4t6TisEvIvfc88v7zgBCJwVbtRLLHzujQ40ntNhyv/374O5Vm/cgnRQprnvw2Ov05Cukta/Kl2HOSQsXEu2FUSe55PNWn3VSKkMvGJRuO4zg7iMY1S8h98B/CWaNh3kSi2pWIzaHig0CEFFIxezOiYCVfNdR4mJpdSSYq2n7g7fAFqj7zXeoTCdSkqex/AP7eJ1O50+CSn3tLap/8FrmJfyNhc1jxCjiCEImPIqRtI4ISDj6O7p/9ZafeebIlLtlwHMfppEKF3OL3CT4cTXbGK3irZ2PXLCTCi6tSqUUkLiVlrC1aJU4VARUSmiUrFfg771OEV9My6V32IP35P7bb+bZmzWt/Jpr4Vzy15CTZsh0yn5TP/TwijEYEe5xI90t+UfQ1JR2BSzYcx3E6kVAjsh+OJzdnInbWaFj+IUH9WozvE6iA+KgqopYov41SxSMwTR1U205U45ENjetyJHbZuwhH7TwaPhpPZvSv8LGgFlPArhOIi44pSoqAXN+9qbnwbtJ9BxU32A7CJRuO4zgdnNWI+tlTCd4eiZ0zjtzqhZhsHZ6J1wmIMVi7oRhX06XPI0LFwxCvDygeRTGEJoEngum2cxGP3bHVL3yX+mduwatbTKQSt3svcG5KsCSx2GQNlSfdSOUuexY52o7DJRuO4zgdUFC3kszM8QRz3yA753W8NfMwmbWo8YEEiJStG2q8mDGKt5n2HIg/pPPXgWiJ3LqlNDz8NWT5hxRjjEjFw5oEyWO/Rs3hlxQhwo7LJRuO4zgdRKZuFdGsCTTMHg8fvYqsmYtGIb7E3UAi8VEbtwajwKH7YlAk7jcigqnqSbr7jj+yYYH1T3yTaPkMRExzhdJCiYCnOeSQK+l5xo6182RLXLLhOI5TRtkV88jOnED40UtEi9/HrvkYYwM8LBlJx2XE8wSLiBZlR0nrbFpZVDEYQkCQZOl3oXQEq5/9CfaDf2JQIt1Sr9eWE4jX1ex7Hj0++/NihdihuWTDcRynnTUum032g1exc8cTfTwNu34Zxkb5XR7xwsEID8nXYWjqWhrvXhBUpOB1AgVRgfzoCk2lq/I7KXSX4e0XR5ms/s/v0HG/waohwhS28yQvHhEyMOgoai66E5/W9aHprFyy4TiOU2KBQm7eVMKPxpD7eDK6eDqsW4iaBPlL9hZqYGzYpPrJHhvtmmgQdyL1NMIjbseu4pFQS6CQ3H3HTjZqpz1HbvS9pIIGIknmu8VGRFLg5dP4SHVvas7+Hsma0pZ470hcsuE4jlMiDXOnkJn5OtGHrxAt+5CocR2eCAmbJUJQjRONji5hs6hnsJJCreJ5hqjHQBIDRpAadEi5wyuZhhmv0fjcbXjrF5OTBCE+PiGWQgp4QVIDMlU70+3MH1Ax6KAiR9uxiWobV7k4juM4zbIr5tPw5pPYmWNgybuEDWuJvBQoJGwGi0coSSQ/FC/NHTU6FoHmpmYBhmSyAu2+K+ZTp5IeeiSJoSNIVvYsd5glk1m1kPq/XkG0eDqWeGpL8lt+4++Z3e4xNmYEbGVP0mfdTo/DLipN0B2YG9lwHMcpguyKedSPf4DorSfJ1S4kgUckHkYMxgYAROIBQkIz8Y4ONJ6WKEqprZaKL5hNBAvqgcSbOQUDYrEKJt0T+gymYuCnSex3GqlBB5NIpNsx1vII6lfT8NjXCRe/i8SFTOJVNDYiMn4+8di2uPCZF28RRom8CiqPu57uXTDRAJdsOI7jtEmEpe7fvyH3xoPYVXMwIvh4ccNzjbaYSDT10SjPeEYcj2hcv9KgBJ5gVDB40K030ncPkkOOxd/rOFKDD2mXpmYdSd0LPyOc9RqRJPA0yP+rEJn4kmlaMKphxSBq8z1pDP4BF9D9pGtLGHXH5pINx3GcAjWuXED9o19D576eHxUQbMebEdmMAMYIiiGLkEj3wd9pAAw/l8r9zsTv07/LXhzWPH0b0ZS/EUoiThalsN0iRiOs+CiKP+Roel54e5Ej7Vy66s+T4zhOm9TPmULjqO+hH79BYBKItn4evz01rb8QGyGej/bZg8Su+1Ax6CgSe34af5e9u9wIxiet+dfPCcf/kVCFZJTBiiFn0vjNoxstF5okSQLMLsOpvuxX+KnqEkTcebhkw3Ecp5XWz5pE49+/gq5dCCJ4GoJqwXfBpSIChriAlCbSSLfdkd33J7XP6ST2OYl0Vfdyh9hhrJv8JLnX7sNYSygJEig5kyJps9gCvq8JDbA77U3lRf+PVK9+JYi4c3HJhuM4Titkls+m8ZlbseuWbLLQsr3LhzdtvzTNBaYUMBgsHpYQgySroedAEgNH4A07idSeR5Gq6NaucXYG9XOnEbzwQ6Igi9EIH4mbzKndrMbJ1hhVLBKviDE+XnUPEmd+j6pBB5Y09s7CJRuO4zgtlAPWj7wNu+idsvYmAcXTkFAS+BrGawPEAxtiKmtg1wNI9D+ExN4nUzn4IDw/VcZYO7bsumVkRn6ToHY5ng2Jmru4CoJt8U4hK0IgCaptA5lEFYkTb6Fm+MmlDb4TccmG4zhOCzWMf5ho5mg8UQIKby3eVoLgiUUkIqcJvOqdSOw8BDP4aJLDTiIx6OAuv/6iJYJcPesfvYHGhdPxUQyWgGSLdpt8kgWS5AhFSB90PjXHXln0eDszl2w4juO0QA4Ipz2KIoRq4oZo7WjjIltWPKLKnZCdh1G91/Ek9j2Vil33atd4dgT1j91E9sNXqbSNROLTaKpIaK6gY/lYQvXwDrmMbpd0jeZqreGSDcdxnBYIFkxHl3+IsSFRCRuhaX7e32BR2TB6omqRyt7IgMOo/NSJeEOPIL3rMIwbwSjI2hd+Rubd5/BEyZgKFCFtGwFatCBUkfh7BIBB8akYdAiVl/6iyzRXaw2XbDiO47RAOGcCUcM6QBClZJ1XDYqqxoWgfA9q+uMNOIjEp04kMWgE6Z0GF/2cXc26d14kN+53SJRDNf6aQ8uSDCCuKooSiUdCs1iTJLHrfqQ++2tSprC+KTs6l2w4juO0QLh4etztE4gkgSEs2bmMl8Tseyapgy4gNfhgkjU7l+xcXc36916k8dnv4jXWEknTOFJrxctGfQ3IeRX4Fd1Inv1DKncaUuxwdxgu2XAcx2kBydaCgMR1yEvWzURQbFUvKj79X3QbdnyJztI1NSyaQeOoW/FXzyfCw4rgFdCL1GDJmjQJQhKJFMkzfkD1XkeVIOIdh0s2HMdxWsJ4ROJjCPK7FeLtkcVmAVO7hOwDV5LdaW/8vU8hedAFVO40qOjn6kpy9WvJPnULmTVLSGs8BeJrFi2gXXw8fRJi/STpU2+lxxGXlSDiHYtLNhzHcVqi12A0iuJEI9/RsxQUQyQg2Xp04TQaP55COP4PNO5xAqkRl1I97NiSnHdHpw1rCVd/TIUGBBh8zRJKoqBtrqEkSGsjqWR3KkZcWIJodzxuyazjOE4LJAccAokkoSSIxC9ZW3hB45bkCFYVI0Kuvhb71mPkHvgvVtx3Pmv/cz+NtStKcv4dVarvIMzwz5C1hsgkUfJl5guQtI0EVNKQqSXz5vNFjnTHJKoFTFg5juN0MWHDWlbfexay7EMC/I3KhJdeU2JjpKmzrJKo6Y0OPIL0/udScdBn8Eo00rIjya5ZTN1vziZaswjVeISqkEqwRpWc8aiyWbKDjqTPlx7Br3R9ZrbF+8EPfvCDcgfhOI7T0ZlEmsz6Wpj5KoihVGs2tkSIp1cUQTTCIyIMcrBsBuEHL1L/7kvk1i7H9BmE73qfbJVf0Y0oDMnMHk/C5siZVGHTKMYjFYVERqB2Obb77qQHuB4o2+JGNhzHcVqocfEMau8/HxpWg8YXKc1PfBiNStj1dUNio/nUw9OIUJL4hBiBCMFU7YwMOZzUIZeT3uc4Eq7mw2YyCnX3noOZ9zpBAYtDAYxG5EwKT5W0NhAOPJpu1zxOOllZ5Gh3HG5kw3Ecp4US3foQrFlKMH8KanyMRghKzlSQso0lWzS68QiK5P80VRdVZEO30aAemx/tCN5/iWztajRVTaJmpxLF1fn4AmE2Q+6j/xTcS08l7q4rKFZ8qF2EkiC9p9v+ujVuZMNxHKcVgkwddb+7iOzHb6FiSNgsOZNG1BY0JF8KInFVTIkCbFVf2P0gUodeTvXwk/DSbpolFzRS/3/Hk135MWjb1954opheQ6m86hEq+rrCXlviRjYcx3FawfNT6O4HY+aORetWEkqSpGabe5l0FIohlCQmasSsmoV9/wUaZowms3oppGtIdO+6VUk9L0Em8mDmK1CEkvOKYBtXI4GS3te1ld8SN7LhOI5TgPULPyD76NWES2YgNmpxX432o6AQmFS+k6nEQx6qaGUP/N33Jzn8HNIHn0uqoqbcwba7HMrae86Cjydj23gVVAQjiqnsRdVVj1PZf3hxgtyBuJENx3GcAiRr+mJ7DoWPJ2Eb1qEiqMSrJzwboSTaa7PKVsSN4uLOpPHfRS0iigkaYc18wg9fIXrnWRqXf4x225lETd9yBtyuPIQo1Yvog7e3IccAACAASURBVBewFiymeT1MazU9z8+tJkj1onLYccUNdgfgRjba0fvvv8f6hgZeH/s6DQ3rCYKQd999B9NcvAeM73PggQcSBAFHHnkUPXr05NBDDy136I7jbEXDohlkn7yehnnvkkAIBEQChADRRLnD2yYRUDxUlWRlN7xdPoU5/Euk9zqSZBdZVLriD58jnPEynoYFVxQlv0g3pTls78FUff5vVPbfr+ixdmYu2SihqVOnMnr0aN5/921mfvQRURRXq2vaxLbxlz7+u+RHOuOhTpF4hbnxPIYMGcze+w7n0ss/x8CBA8vxchzH2YpsYy11T32L3PRnSWdrCakgVB8jAcVYE1BKTRdZEQ9rPLx0FRUn3kTN8VeVO7R2UffuywQPfZ4oDAjw8YhaXR22+T0dQ4KAxP7n0/2//1iSeDsrl2wU2eLFC7n3nnuYOvkN1tfXx0mEKoV8mWWjNymR/F5+z2NA/wGcctppfOF/usabgeN0FnXTnic75h6yS6aTiBpQ9UpW1rxYLAafKK4T0v8Q0kd9mW6HXVzusNpNoLD2j5cTffgKIT4p20gkrW8bZjQiEh8rPn4yRdUVf6Z67+OLH3An5ZKNInn88Uf5+yN/Z8niRYha1NrmMrha4GZu2ca3xvM8KiqruPjSy/jyl79S0PEdxym+KMqy7tXfE735GKyag0ZBfq2m5hOP+B5Ymj9uX4JutD4hXtNhKrqjh11Jj1Oux9/GYtHp06ez7777tl+w7aTho/HUPnAlXuNqcpJsdc8UJR7V8DTKD1ALMuxk+l71SGkC7oRcstFGf/3zn3jgz38kGwSote0+YOoZoXvP3lzz1a9y1lnntPPZHcfZmlAj6ic9TmbSA3iL3yKMIiweRkM8GxKaFEqEac+y52qJJIEhwsfG7ez3PJ7UyTfTbY/Dt/ncn//sTkY9/TRjxk9ql1jb24p/3Ix94y9Y423zRq8lREASKSo/9zeq9z2xSBF2bi7ZKND411/nrp/+hJUrVmBt+Qr5CBr3aRDDp/bel7/89a9li8VxnM1FWBrfe4XGSQ/CrLFE2fVghAiPpM1hMQWPfrY+Fg8RIUEAVb3xDvsiNad/Hd9LbvU5EyZM4Cc//j5rV69h4ICBPPLYE+0Sa3vLLJxO3Z8uxdYtL2ja+5MEhaHHstO1jyOuwbpLNgpxww3XM+n11xEirJZ3PjYekM3/XYRURSUPPvww/foNKGdYjuN8QgRkZ0+i8f1XsO8+g66aDRKPa7TXu3BCA9RLYgcdRfXp36Zy6IhtPv7WW7/JmNGjCaMIA3xqr734y4M77tTA6n/cSHbyQzS12WuLppLylef/nJqjPleE6Do3l261wsSJEzn5xOOYNP51VG3ZEw34xC+EWrIN9Vx60YU8/+yocoXkOM4WeEDl0MPpffat1Fz9JP6ZP8LuvB+IwZOCOp23WFP58miXA0ic///odd2T20w0Ro8ezUknHs+r//43Ngyak6H99j+gdEF2ABWn3IDp2R9ThO9FPDmmBFMeItfBdyS1h9Yvue2i7r7rpzz9xBNsfHlXkTbP7RXLxjtXoijijtt/QqSWc845r4xROY6zJale/UiddC3RUVdQP+05slP/DgunIJFFVGnqJ0vz/zcU5VIMNt+EbWOCEuFhsHg2xIqHFS/eypmoRg44n27HX0t6lz22GduNX7+eNyZNJIxCRDU+u8QxhGHrFk52NhW9+5MdejyNUx9GsPGQU4FZYCgeVVEDweL3yY5/iOSRVxQ52s7FTaO0wOev+ByzP5qBqm234c5iMMZw63e+x2fOcQtHHacjyyiE054mmPx37NIPiNYtwjeQkRTGRs3rR+O3HxNvg2fTBmI2vxtCgdAkECQuU96zPxUn3EC3o7Z9sRs58il+9tM70K1s1TfG8Kvf3M+hh+zYRQYzy2az7vcXo+uWIDZoXlDbWhaflK0n51fgD/g0va57HM907CJvpeTKlW/DypUrOfO0U1mxfGm8lbWTUVVeHzeGHr37sPfee5c7HMdxtsIXSO62NxWHXowMO5Wosjfh+pX4Daviwn75kuOaH4z2NNzsjtsi+ER4KIiHbwSz/3l0u/gXVO1zwjbPf9111/DU449tc7G7MYYzzzqHXXfdtc2vtyPzq3sR1K9FZ70Gxmsu9d5aohCZePcR65YhqR4kBx1Sgog7BzeysRWr16zmgrM+QzbItd/qrRLxEwl+e/8f2G///csdiuM4LZSpXU7DlKfhzUcJlkzHqAU2jDpY8TZ5vKBY8ZEowAw4iMqjrqL6sEu2eY7f3/9bHnzwAaIgQHXbN1QVFSleHTOhTa+ps8g1rKPuN2cTLf0ArN3sa90SKoraJEnNEfkhZtcR9LjuaRKpqhJE3PG5ZGMLVqxcyYUXXEDQWE9HLzXcEgKkKip59KmR7NSnT7nDcRynFXJBhsZJj5J55znk44lI0BiXF9cNQ/tCfqAj2Q3/kM/S7bSbSFT33uoxlyxdyo1f/xoL5s4ljKK4RcJ2pCsq+M+Y14vwijqHtWP/TPDsbYSRjddvtJYakJBIEviqWGOoOvkb1Jx2Y/GD7QRcsvEJq1at4rxzPpPP9HeML01TLY6he+3Fgw/9vdzhOI5ToLrpr5KZ/Ag6dxLB+hX4onhYstZQ2X84idO+TfU+J23zGL+97z4e+Ouf4hYILXyPE2Cvvffhrw88VIRX0TkE2XrW3HceZtE0Qlo/shHT/DQMeKKYnfem6usvk06kihlqp+C2vn7ChRecT7gDJRpNVJXZM2fxne98p9yhOI5ToG77nkjfK/9I9ZcfperQy0hW1hBV7Uz6+K9S9eXHtploTH/3Xc4/50weeuAvAK16jxOB7j17tDn+ziSRqiK9/znk1G9DfVdpfq5VIVo+i4Z/31ucADsZt/V1I1dccTnZxvpOv0Zja9RGjH7lJcadcTpHH31MucNxHKdAlbvvQ+VlvyCz5BqSuUaqBm67/sVdd97JqKefaFNLhT59+hb4zM6r8tgvkn17FHbx220+lgKiIeGUh8gceiHpvoPafMzOxI1s5N15++3M+eijHTLR2KTZk4245aYbyheM4zhFk951r20mGu+88w7nnH0mI0c+hVXFFvr+JsKn9tizwCgL98EHH3DHHT9t9/M28ZNVpE++EZKVRSm6FqnBrllA46Qdtwrr1rhkA3j+2Wd57rlRJetxEm9Z2/CnXASNt/Cq8pWrvlS2OBzHKb1v3XwT11z1RVYsXYraCKvEfZQKIuzev18xw9uuRYsW8oX/voKpk9/Y4udzqxeTWbO45HGkDzgdb+Cn4w65agvaBtvEqMUTIffWE2SXflTEKDs+l2wAd9z+I6IwV7LjyyfSjXJR8jWR1fLB9HeY8saWf4kdx+ncTjzuaMaOGd18AyWq+VJghb3/iDEcdfSxxQxxu/7ni1/AQ1m7evkWP5957wUa7z2N1fedy+rn76ZhwbsEmbqix5FAqDj+GmyyO4igCrbABaMqSoiHrl5AZtLDRY60Y+vyaza+/e2bUWs3aWi2o9n4tWm+Q+xll1/BoYcdVs6wHMcpgZdeeolsNpsvRFickdT2XjB/ycUXUbt2LapKLrvlG0HpM5SgbhWmdhnhnInYCX8kV9mD5G4HkBp8BIkhI/D7DccvwpegathxZPofQDh7HBbBIyxolFrx8DTAmgS5qY9Qv88ZVO356bYH2Al06WRj5syZjHn1P/lfpNJMb4gIVkGMYJqGMJtKD9t8gR4BSlqhNP/6RKjp0Yvb7/gphx66Y5ccdpyuavnyZfm1Z8V5TxMRBg4aWJRjtcQVn7uchfPnbiheppaXXnyRU087bZPH+bsOI6reiah2GZ4GhI11+JlV6KrZ1L/7LLa6D9JnCJX99sMfeixmjyOpqKwpOK70EV+gduHb+Jm1+S9v67++RuPeMiEepmEdja/91iUbXcGvf/l/kJ+DK8VaCmMMqsp+B+zP8cefxD777MPBBx/c/Pl/vfACc+fNYeqUKbz/3nugtmR3EEaEg0Ycxr33/bYkx3ccp2NYtnRJ0Udpo6B9GrBde/XVzJn1EdgIEYMS3yotXrxks8cmanrhJ1KgIYqCRuQkgYfiaQT1y0nWLyc3dwLZ8Q/g1/RhfY8BJPY6kdQeR5EYfBC+afklsOrAs8i9/QzBOyMJTSIuGd9KKoYQn5RtRMUnmDOG9dNfpXrfE1t9rM6myyYbS5YsZurkyfkf5rYnGhuOoIjEbXvOv+hivnHzN7f6nNPPOKP57ytXruTnd9/J2LFj0DCEIiVAIiB+mquuuoorv/DFNh/PcZyObe7sOZDv1los++1/UBGPtmX/9/O7efvNKXEjuI0XsipMmzKJK79w5SaP970k9BgAq+YQkgAEL19y3Yog1pITgxUPYwOitYuw65aSmTuB3Jhq6D2URL+DSAw6HG/QIVTsNHi7MaaO/yrB7DGYxrqC590NUb78uWJy9WQm/tUlGzuyH//ge3GiUaTfyKbDGOMxZMgQHvz7Y616fp8+fbjz7p8ze+ZMvvylL9DY0NDmmESEdEUFf/7bwwxqx2FQx3HKZ83aVUU/pu+X9lJx11138czIJ7fa8HLN6jVb/Hep2S3eZYNgCNnkti+fsJh8qfGIeHG8iEC2Hln8DrnF75Kd/DCJdCXrdzmAxF7HkRh8OIl++5FMb97DpHLgATQedAk67nfxOQp4rRuPpBuUcO4E6meMoWpY+y7AbW9ddjfKW2++VZStrs2ru1Uxns+pZ36m1YnGxobuuSevvDaO3fsPwJjCvz2e53HoYUfw6mvjXKLhOF3I4o8XFHU6VkQ45rjSXQhfeeWVONEItzwtoaosXLxwi59L7LJ3/h1YkRa+ZgWsQqT5ha9RiDasReaMJvPCj6n96+dZ96tTWPW3L7P2jadoXDJzk+dXHH4FprpX0epueI1raPz3zwl22C0KsS45svHUU08hIi1qPtQiomAMx514It///g+LcsjHnxrJf11yMfPmz21VUtT0uq78n6v40lVfLkosjuN0HmGR132JCOl0aXp5jB03lu/d+s2tjmg0yWYyzJkzhyFDhmzy716/4UiqGpNt2HTqpYUUITQ+OQwGS0JzmMbVaGYt0YrZ6DtPQTpN/a4HY/oMITH4SFJDDsZ2H4jUr6Kti3AFJRIPf8FkGqc8S+LQc9p0vI6sS45sPP3UE1gbbf+BLSbU1NRwxx13FvGY8PBjj9OvX1xIZ6uJkWwoFCYidO9ew69/8zuXaDhOF/TGGxO3e+FuLWstw/ffdjn0QkyYMIFbvvGNFt1MiQiLFm4+uuH1GYiXrsEAtoDLmVFLOmogbRtI2BwKRJjmkY9AEjRmI5g7nmjyQ9Q9cRN1vzoFXTod1bbfrBq18XHCHJnx9xPtwKMbXTLZmP3Rh0U9nhHDVV+5pqjHbPLokyNJV1RudVhUFVQEjMehIw7jhZf/w8GHHFKSWBzH6dhEvI1q6hRn5DaZ9Ekliz+yccuNX4coaNFj1VrGvz5us383vfthu+2EkcIu0ipCZBJY8eKvl0h+ajxfhFEjRCNCDBEGz2YJM/VIlCtKWqDEi1lVgQVv0TDt2SIctWPqcsnG2LFjijd9AjSt2jj55FOLeMxN/fiOn2K8Lc94eRIvMvrKNddyj9vW6jhd2quvvFLUkQ0RYbd+/Yt2vCann3YKURS2+L1YgHXrNl8kmgK0emfQqHkhaCk1bSoo1viDFQ/J7xxSjdC3Hi3SkTueLpds/PvfLxV18ZSi1FRV06NH6dovH330MRx34omI2bRErjFC35134YGH/s6VV36hZOd3HKeTKHa5IFX69tm5qIc8/dSTqV2zOt7i2sL3YqvKvNlzt/g5f+AIrO2c0w+C4muAxSNn0mTnT6Nh6axyh1USXS7ZWLe2uLXzpfk/pXXHHXdSU1PdfCrP8zjiqKMZ+ezz7LnXXqUPwHGcDu+tt94q7gFF6F5TXbTDXXf1l6ldu6agnYDzPp63xX9P7jQESaRolzfiEojEA4Fk1EjYUEv40dhyh1QSXW43ytw5Jei0104p21VfuYZf/PxuMD433HgjF150SfucuB3Nnj2btWvX8OKLL+B7HlMmTQYDIiZeIJZv9CIihFFI//7xEK/v+wwffgDpikqOOfZYV469jaZMeYOpk6ewZs0aZs2eSe2atWCE+vr11K6ra74jFRF2231XNIo/HjhoED179uSY446jV+8+7LvvfuV8GV1OuNH20ZZuBf0kRZq39KsI+x1wYFFiu/5/v8qb06ahqgVMZcdRbYn06A/JCkxmPZ1zgCP/pqYWTwOCeZPg2B1vpLrLJRue5xWvkhcAQl3teuYvWMDA/sWf29zYhRddwssvv8x3v/cDdt9995Keqz396c9/5u1p05jx4fvU1tYhxoC18UrtpgdtpSLiwo8/bnoA8+bMQcXw+OOPEllL3z592HuffTjttDM4+eST2+fFdFIjR45k6tTJTH9vOsuWLUVstOkwtzZVM9jcgvkfN/990aKFqCrPP/csAvipNPsOH86hh47gC66CbcktWbxoQyJYhCrEghAEbd+5d+ON1zN50oSCp7AFQVX5xz/+waWXXrrJ5/ydh6DpGsisb3Oc5bAhsTMYQGs3L82+IxBt73Z+ZXbk4YcWdwEVCsbjvAsv5JZbvl204+7IZs6cyWOPPcb48eNYszqeu5WmrchNFzjZsJ239T+iccl4VJt36hjPY8Shh3H+BRdw3HHHFfcFdVJ/+P3vmTZtGm+9ORVD/uuebwzY1ncFyV/qgE1q2vTr15+zzzufz13x+baG36FNmjSJ118fR319A29OmxzvEsn/WLf2axtGAeedez5f/J//2e5jjzzicDSMd3gUmmxsPLJhPJ/XJ77R6mNs7KGHHuC+e++BqC3vu4oYjwsvuZSbbvrGJp+xCit/fSby8WSiImxHLScjQI9+dL9xNKk2NI3riLrcyIYxhqjI+9DVKqOeGcU3bv52/MPibNGDDz7As8+OYuHH8xHVTeZtN3n/3WiItbBcWDa9I49CbBQyacI4Jk98nZ69enLmWedw7XVfK+h1dGZT3pjEX/78J956c1r8Nc8nGJv8RhTh9mPjcaiNR0gWfDyf3957D7+59x5OOfV0Pn/lfzN06J5tP2EH8MLzz/HYo//gow9nxN2e8z/fbf1yGhFSLSiqNXbsmKI3cpQ2vqH9/e8P8dt7f93GRCM/0aDKgo8XbPY5IyDVfdp0/I7E2AgTZcsdRtF1uWSjNDVTlCgKuebqq/jd7/5QihN0anf99HaeefppROJV5YI23UBvRD/xUWFvcrLFb/BGyYu1rF65kocf+CsPPvgAnznrbG677XsFnaszeeBvf+WZJ59k2fKl2CgeRdq4CfknazIUOt//SYps8o1WQGw8PfbSSy/y8ssvceCBB/GNW765WXXIzmDpkiU8+OCDPPnk4/GNht20c7PQ9mWLIkLP7tu/y120IC5TXqz7HQF2373wqeHnn3+W+371q+aft2KYOXPLNZL8Hv0I8q+9aRIp1vS9kE1GbDqyQAxE7dNltz11ud0oFRXFLU7T/KsdRbz31pvxcKEDwB0/+SGfHnEwo55+ClUb3+mpNu9T3/SPbPKnUJ88jjaX6MnfYecfY61CFPHCqGc4/dSTGDlyZDFecofzj4cf4qzTTuZ3v7mXJUsWEUVR89eDjf4vqpv8KRZBt3hsAbARGoW8NW0Kn7v0Yn7ykx8V7bzt4ae3/4QLzj2LkU8+Fq9xiaLNRhY2/zlv3R+bX0x55lnbL2O9YsVKNpT0anvCLugmC05bY+HChdzxk9uJipRoxLMjyrp167b4eb/fwViTwhC/uYT4+YqixUj32pd6SUxF8XYAdRRdLtmo6da9JMfV/LTAIw89xJtvvlmSc3QWP739dj59+AieGzUKI4LtwMuCFKhdu5a777ydL3zhShqK0G23I3jhhec5/bRT+PU9v2T1mnirYUf9LjRNs/zz2Wc56aQTGDVqVLlD2qZ/vfA8JxxzOM898zRA0S6oWyLS8nvxmR/NQLWIU8Qi7L33p1r9tHnz5nHZZy/GtrA6aAuDAfG4fSstIfxd9sCrrAExqJfAl7jPiWIIJYHF4GlY1ES6FAQl1asfXqpbuUMpui6XbBS1Adsnjgtgbci1V3+Jd999t+jn6Oge/cffOf3Ukxk1auTmuxk6qKYYNYr4cPp7nHLySfzjH4+UO6w2ufzyS/nJD75P7erV6CeG9TsytRH1dbXceceP+f53v1PucLbolltu4sc/+D65TA6b/9kpxftJExGhf/8BrXlGUc9fWdm6O+yFCxfyuf+6jDDIFWXXn0i84dX4SW79zne3urg7uft+VJz3M7yDLiHVux8mkUYxpDRLSrN4RBtKkndQImARvCHHlDuUkuhyazYOOPAglixZXLq7PFVE4LZbb+GZZ18o1Vk6lGwux/9+7Vqmv/12Se/ySk3VYoMsv/rlL5k6dSo/+9n/lTukVvnTn/7En37/24129DTVVe64b7CfJPnE798vvcjbb09j5KiO8zt09pmns2rlSlTtNqo+FJeqYryW3RO+8/bbRW8t39qCgdddey22SIkGxK/f8zwuu/wKzj5n61NJnudTfdBZcNBZ5IJGMjMnYedPJrPwXWTBJLz6FVhJNLej74j5twBa2RN/n1PKHUpJdLmRjT0/9akSZ7eCWlixbDnnnnVGCc/TMbzy8kuccsJxvPPmm5060WgigEYRr48dw7Vfuarc4bTIokWLuPzSi/nzH+7fMJIh5Ce6O0+isTFrLcuXLufoIw5n3NgxZY1lwYIFnHLSCaxauWLDNEU73SGLCMMPPKhljzXFfDtXVAyDBw1u8TM+e/GFrFi2pM0JT9POExFBjMfZ557HdV+9rsXPTyYqqNnneHqccTN9r3qAbl9+Gv/0HyODj4Gqnhjfx7MBRprWdMVfN0UQtflESRG17TDtIhvOEYXI8Auo7rdvic9ZHl0u2TjuhBPb5TyqysoVK7ju6s5xwSrELd+4ie/dditBLlvkQmnlJSg2DHn7zWmcdvJJ5Q5nm0aNGsUlF13AvDmz0Y1XsO8A3w5VJQoDvvmNGxk39rWyxDBjxvtc+tmLWV9Xt8lFtJQXoU0WSYu0aJHmlClvxL+HRSNYhUEt3CH0hSsuZ+H8eaht+w2Hkp8+MYZzzj+fb3678Ck1D6jstw89TrmOvtc9QfernyX9X39DDvtvpPdgkkZI2AxJQqz4RJJAxWDxiCSBFVPahCN/7Mgk8Ku6023EZ0t3rjLrcsnGrrvuym679SvpPGuTyFreevNNvv3Nm0t+rvZ2ycUX5/f1l77TYjlIfmFrXd06Tju1Y1Yf/dGPfsidd/wEG4XYInai7GhUlVtu/gb/Gf2fdj/3jTfciA0CKNfPuUiLOkqn0+niTqEQtwDo02f79SvuvPN2Pvroo6IuBPc8j7POPY9vfevWoh0TIL3rnnQbfgp9LvslNV/7J6krHoATvkG40z74HngakCDCb25ZL5S0TpjE7zVpEyHH30DFoOKUhu+IulyyAXDsMe2zACfedm8Z89povrODJBwTJ47ntFNPYeH8ufHWxR31Cpen1lK3dg2nn9Q+I2ItdcP1X+XFfz4Xj2Y011bonFMm29O0gPe2b93C2HacUjnzjNNZu2oF5UzjBGnRjM1/Xi1mIha/3qpu218c+vO77uS5kSPj3U5F+jIZz+fMc87l220Y0WiJVHUvqvc/lT7n3EavG16i8vMPkjrhRuyAw6G6LykJSBKA+CX7zVLxwXh4n/4SPU/+3xKdpWPoksnG/954E15R5ze3TaOI114bzR//2LkLfk2YMIGvX38969au2WFHNLZEVamtW8dXr2v5vHEpnX7aKbwxcSIahRtVEtnxqbX84AftU4Dt5ptvYu2aVWXfyaNqOfzwT2/3cdlspmixSny7zV577LHNxz34wN945uknsFHYPPXR5nOLsN9+w7n11tvafKzW8JOVdNv3RHqcfSs9r3+e6uuexz//FzDsdLzqHojnIyJxtdI4UnSjv234f8u/B54oJpHGP+zzVJ73k6K/po6mSyYbAMP23bddplIg/vGLooi//OF3jOqkxaMmTprITV//GmKjeBFVF6OqTJs2hbvv/GlZ4zj91JOoXbM6Xzej7UXQOhNVpbGujtNPOr6k53n+ueeYOG4sWqYFzxuXo0smEi16zqwPZxTt/E2Xy8rKqq0+Zvz4cdx/7z2E0cY7c9q4MNQY+g8ewu/++Kc2HaetEkBl34F0P+oKel/1MDXX/ZP0Jb/BP+B86DUE8XyM5suGiWDx4vYLGBRDUx3TuB1A01HzBe3EYPLbeaM+e1Fx5m30uvgukl3gV7jLJhs33/It2nvY2VrL3Xfe3ukSjnHjxnHj9V8ragO7zshGESOfGcmY18qzWPH0U0+mdu3ast9tl5OqUrd+Pdd/9ZqSnePuu+/sEDurRGDAoEEteuy6dbVFPrdw4AEHbPFzY8eO4aYbbyzqGg0RYeDAwTz66ONFO2axpPoOpubQ8+h9xf30/PoLVF3+ByqO+jL0O5Ao3QOjIZ5YRARPFJ8QXyM84jIIcW0nDzV+PNVU1YuKAy+gx+f/RM0xXacTcpers9Fkr08NY/gBB/L2W9PaNeWIooi7/n979x0fRdX1Afx372xCSSihi5EqIh0EIYAiSBdEqiLS9AVBilgAERF9VBBEERAUFRVBqfIIKqKUB1FapEnvoVchkEIgyc7c94/ZDQkk2c3umdkknO/nk/d5JbPnTrbMnrnl3AnjAAl06NDRxpZ9ExkZiRGvvgwQzDLP6YQyoHSFsWPH4I91f9natploXLmjEw03wzCwdcsWLP/lF7Rr35409siRryKZcEjCPwKFCxX26si4mFjic1ZISr69AuiJE8cxauQI1xAeDSEkwsuWw/xF2S/RuFVQ/jAE1W4H1G6HIADOqK1w7l+N5ItHgBeFtQAAIABJREFUoJ3fDZF8A8b1GDidSQAEpAZo+cIgQopCFA6HVq4hgqu3Qb5SmQ9R5UZ33Bbzqe3cuRODXngeelKSbUMqbpqmYeToN7J1wrF+/XqMHP5ywLqTsyshJSIaPoTJU6bY0l7b1i0RcyU6m3wBZh9CaNj49xayeNeuJaDlo02yTQ+eFEDLNo/h7Xc8j+c/3KgBnOkkBz63LSU2RG697d9btWqB+CvRZLOEhBAIL1cBi3JAouGJMzEezuvX4Pz3GIyEKwAAkbcAHEXLQitSGsFSC/AZBtYdO4wCALVq1ULr1m2gaZrto96G7sQH48dhxfKfbW7ZO+fPnXMlGoG78LpLywshIKU0f1L9260lq8z/tn7CpDIMRG7eiEOE4+QZGdC/H2KuRFu+9DL1cylwc7Kf+VzD9RrcfB1u/rvrOTcrMSH1K2L9xFWFF1+km7T73ttjzR2JySKau+lm+ce9O6kQuL9KFY9txMbEkO6sCpjJxq3atG6B+KtX6J4fIXFP2XK5ItEAAEeeUOQtXBKhlSJQsFZbFKzVFgUqP4R8xe654xMN4A4eRnEb+9Z/8Ocfa3EtPt72tg1dx3vvvoMy5SqgWrXsVTWuT9/egM09GuZsbwHN4UBYkWIoU7YcHMEaGjSIQHJSMiAENE3Drl07ERcbi1OnTuHShfMpFQdT9qmwoQdAGU4Mf+Vl/LTcunLar776Cvbs+seWGg/uZ0y6Nv4yFBCaPwQ1atZCstOJqtWqonCRojB0A0ICV6/GYv+e3dA0iR3/7EByUhKkwwFDGRAG7Rd2huesDGyJjMTJkydRpkxW9g9J34YN683dgAnfQ/4UhFIQkJrnCaK/rvjF5zYyUrxYiTT/3aXD44iJjiZtwxEcjI+nTiWNybKvOz7ZAIBRo9/E2DGv29x96looZegY9MLzWL7id4SGZI9thZ/p8TRirlxJucO1tPteahBSIjz8HjRp0gQNG0agbr36mT7k6ad7pPz/SUmJWLNmNX77bQW2bd0Gw2lPASalgMuXL+OHHxaha9cnyePPm/c9Nm1Y73pPCvJegjSvq5CAlAgODsYjTZuifr36aNr80Sy9Hy9evIh169Zh3R9/YNu2LZDKgGHD50kocw7N7Nlz/Iozf/586Lpv26lbwYCAlBqefNLzeyv2Ku3kUAAQjptfDS8OeQHnzp8luxYIIaCkhm/nfIfSpcP9jsdyhjt6zkZq77z1Fn7/bTl0Xbdp/oYEcHOfhTx5grB02a8oXKSIDW1nbO7cOfhs+jTLEy8pJQwING/ZCr1798F9WdzwKSOLFy/E3LlzcenCBZLSyZ4UKlwIv62irWx58uQJPNWti9m9YGEfgXs46r4qVdC7z7NoRljK/8vPZ+KHRQsQFxcHAJYkrOaQh4DQHPhu3gJU8LK0dnr69++Hvf9sN28AhCArUa2EOewUnCf45tZtHi8v5n4dSUmJ2Lhxk8c2XnxxCLZu3kRXZ0MI1KzzAGZ+/iVGvPoKNq5fZ/b4kASX0IKC8P28BShbtixNTJYjcLKRylPdOuHUiZM2TcSTgLsIjDBXZufJmx8rVv0PefPksaH92x06fBjP9ekJPTnZdS9twReE6wvuuX798X/9B5DHd/vii88xb+63SEpMtPT11KTEkJdfRffuT5PF7NTpcZw/c8ayPMOdTNd54AG8MfYtS+8uJ0+agMWLFrkqD9By9/YoIVG3fkNMnz7d51iPNmuK6/Gxrng0yYaUEpUqV0GvPn3QvLl1Je9ffeUlbFr/F2my8VSPnpCaA/O/mwNhOGEQzGoTAJSUmLdgMcqX936DN5Y7cLKRSmxcHB5r0wo64RbJ3nJPCAvOE4wlS5ejaNGitrYPAC0feRjxCdcsiy8dQXi0RQu8++44y9q4Vd/evXH44D6LuvTNCZGV7q+KOXO/I4n41ptjsHrlShgGfZe+EhJCStxb6T6MHj0GVarcT95GerZsicTI4cOReD0BcG3PTsmdwK5a+yfy58+f5cdv37YNLw4aAJ3wPSIdQejYuQtGjBhJFjMjzR55GIkJ10hXiFSsWAlHjx6mS9SFgHAEYeGixbgn/B6amCxHuaNXo9yqYIEC+PSzz0mL1WSFUkBiYjI6d+6I69ev29r2+Hf+g4Qb1rQppEShwoUwbfoMWxMNAJg9Zw66desOqVkzG1xKgSOHD+HChQt+x9q0aSNWr14FpSwY/nFNvH1+wEDMnfudbYkGADz4YAOsXfcXwsKKmPNDiLm/EGdM820p8ratW2C4JhhTkFLDY4+1tyXRMNtzp700lFI4euQQaYJuQGD+/AWcaNzBONm4Rc2aNfHC4KEQDu/KBJNTCokJ1/BYm1aIjr5sS5M7duzAL8t/Jr/7V0pBSol6DzbAb6vWom7deqTxvfXS8OHo/kwvaMQJh4CAYZhfUl995X+J5Unvvw/lTCYf9hFSIqRAQSxc9AOefTZwFQuX/74KYcWKWzInSimF9Rs2+PTY/fv2AKDa20OiRp06eOPNN/2O5Y2oqCgkJNwgj6uQ/vJXX0hHEF4b+RrKli1HEo/lTJxspKNv32dR54F6Kd2zdkjdtSwBJCZcw5NdOuHaNeuGNdw++mC8JcNGDocDj3fshGnTZ5DHzqqhQ19E16eeJt6AzzVnQCls3ux5Il9mvvt2Ni5ePG9GFISvhZQIL1seq9esRXh44Gf+L//1NwA0X+ypKaXw77//Ys/evVl+bFw8zWdMCQElJcaNs2//nISEBMuuUSQrTxxBGDx0GDp37UZwRiwn42QjAzNmzEDVajVs30/TnJZpThy9fi0eQwdbN4kSABYtWoRjUccsuZv+v37PY5TF20RnxUsvv4JHHm1uFqWC/93OKQmiUrh08QJOnz7tc6wvvvicfD8OISXKV8h+1Rnffm88hCvpI/2aVAaW/bgkyw87fuwIzRerAkJDQ22db7V544aUpd7ZbfKdpmkYMnQYevTo4flglutxspGJL7+ZjYKFC9laylylroOpFA7u24/evXpa1t5Xs76gTzSEwLgJk/Bsv/6kcSmMe38iipUobtZtIoopoCCUgd9XLPfp8dM/mQbdmarUtCLozpcSVWvUwrz5i/yORa1Vq9aoU7e+63NFWPHVMLBvz64sP+xafAJJ80IApe4qRRLLWzFXr6T0Sman3X81TcOgoS9yosFScLKRCQHg95X/Q2howYCdgaEUjh4+iJeGDSOP/t13cxEXE0OabEjNgU5duqFZs2ZkMalNm/6ZWUyMMIlUysDOf/7x6bHz5n1PO19GCJQtXwGzArxVd2amffIJpKalJNckBHD6VNZ6l86fPUvTNswkO6JBQ7J43jhDeP5UpBQYNHQYejzTK9CnwrIRTja8sOCHJZCOINvvHNwpgKHr2LJ5Az6ZRlvad+6cbwFDJ7uzlFLisXbtMeK1USTxrFK2bDk0bd4Cyr3/B8HfrxRw8MD+LD9u6uSPaDe6kxKFwopg/oLs16ORmpQSj3foaFaTpAqqzF2VT5486fVD9u7bQ5p0JiYmksXyxpkzZ5GdBlCkEHi23/Po8Yx1vbEsZ+JkwwtFihTBBx9OhtQC83QJmGXNF8yfh7+33r4Toy9WrvwdcbGxoLpQCSFQpkxZvPHmWJJ4Vhs37n0I4mWYcfHxuHjxYpYes/THxRCg7NWQmDH9U7p4FnqmV2/S10BBwTAMLFni/byNy5dpV3w1atiINJ4n129cy065BhxBQehnYbE+lnNxsuGlxo0bY/z7H7j2DLC/h0NBwHAmY9iQwbhxw/+lbvO/mwsYumvE3L+/x7XLCz757HO/z8tODzaIAIT/f7+bFALX4uO8Pn7R/HlITnL6vRDIPctHkwK9evdGxUqV/Atok/DwcFSqXJmwZ8EsCB4fe9XrR+zauZuwcJVE8ZIlPB9H6Eo04S6sBJKTkzF48MBAnwbLhjjZyIKmzZph0ocfAwHq4YBSgKHj2b7+jYWeO3cOhw8dJJonYG473vWp7ihWrBhBPPv07fss6VJYZRhYunSZ18cvW/YjyWugYNZ3uPueMhg0aIjf8ezUqk1bstTdnG6qcOjwIa8fk+RMImodkJpExYr3ksXzhqHbuXmkF5TCju07sGjRwkCfCctmONnIosaNG+P9CR8AUrO9pLm5hMLAqePH8dVXs3wOM/fbb2EYBk0RIygULVkSr7xqT7VESnXq1EFowUKkMTXp/XN64thxv9pKPdtBCYEPPprsV7xA6NHjGbI7c+X6P5rwvnjb3j17yHo28ufPRxLHWwsWzLdpHyfvKQBKd+LjyR8F+lRYNsPJhg+aNm2G4SNfAxzBtrbr/nLRdR1fff6Zz3H+2rAeZHM1pMCLL71KEisQqlapQtaNrwDoXl783357LE1tB9eeOvUjGqNs2Zy5udU94fcQJb5mIaojR494/RhNcxBVDhUoUbyk33GyIjg4yO4RXe8oBWHoePrJroE+E5aNcLLhoy5duqLbk09Bag6zx8EGyrUXq9vLL2a9yzwqKgqX/71I1ilTsHAYmj/anCZYANR78EHSeDu3b/fquMhNm6GUf/vquitUSE3DmLE5Y2Jueu6rUoUmkAAgBAzDu9U9169fx+VL/5L1DtxdujRJHG9t2rABimrrd2JKKZw8eQKffpozJisz63Gy4YdXXnkFvfo+C6E5bGvTPZlRKYW//45EVNTxLD1+6ZIfILy8GHsiNQ39BwwiiRUopcPvSalmScGblSUXL1xA7JXL8C/VcLUnJKpUq4FiAdglmErt2nVoepdU1m708+XLB6Fo5jwIIZAnn73DKDDSFkQjXERMwtB1zJvzDbZv3xboU2HZACcbfho48AV0fKKTrQmHmzJ0jB/3nyw9ZuOmjWR3csF5gtG5c2eSWIHStGkz0oJa3jyzSxYvJPtakFKgW9ec3V1dOCwsIO0uWbyIbs6DUqj/YAOaWF7au3ePre35wjAMjBg+PNCnwbIBTjYIjBw1Cp26dDGXxdpZ2lwB+/buwa5d3pdoPnPmNCjmawgh0KRJU7/jZAek5ei9+PL6x8dKo+lxSA2t27QlixcIzVu0DMhExytXrtAFEwLBee2dw5VkwQ7B1JRSuB4fi5eH5axVUoweJxtERox4DU906AQhabcx90QYBuZ9N8erY1esWOH6YqWZENe2XTu/49yJjkVF0UwOFQL16tcnOKPAs3P/IbcjRw4TTdI1z71lqzZ+x/LW+XPncC0unvx5K0y8OkvBXEG3JXIzFi2YTxqb5SycbBB67fXX0aFjR2g21uFQysC6P9Z6dezhQ4cglPL5AqtSXdgMIRARYW+1xJwgT74Qj8ckJMQTtSZQL6IxUazACitaDEL4N+/APQdGeJlMX46+7NfydQUAQkEJA4pw3o83LkdHQ9Mkac+GIygYK9asBYQ5EZ0ijzF3sRbQdQNTPv4IcXHeF71juQsnG8RGjRqNdk90hNTs6eEwCzoJLF261OOx+/abNQX8vYgIAOXK58xllumjuTsUAKrVqJHpMbO//orsC0LTNHTv3p0kVqCVuquU36+C+y6/QCHvNk6MvmwOo/jcbqoHVihfwdcoPjl6lKZXJg3X8/fs//WDEJK+jJBSeL7fc8RBWU7ByYYFXn99DB7vaE4atWNMVSlgw4a/PB535PAhv5dbAgCEQNX7iZYrZgs0r5FZVCrzyaZx8XFkF/G8eW1e/WAhRVAJUykAAihV0rtt3s+ePWM+zs/XXwgBu1egHj50iPTaIoRAzZq1AADPD3gBFe6lL3mvlMKJEycwmQt+3ZE42bDIqFGjUa5CRWgW93C4FsJi107Pk0SvX09M9Rj/2ixYiHZsN5CoLtpCCJTw8EW3a9dOwrbs3YcjZxDQnU6vj3YPvPhDKYVK99m7H0008QZyAOBM9bxNmjwFcK2wo1xSq3Qn/rt4IbZsiSSLyXIGTjYsNG/efJQpU87SyW/mBCyFuLhYnD59JsPjtm/fBuVa4un3xmtCoG3bx/yKkV2sWrUSkmi8XQiBiIjMlz8GO4JI2gKAe8qUIYsVcAS7v7qnPteoXcvjsatXr3KNGvj/RSqlRCGbk++oo0dJ4wkhULvWzeetVKlS6NS5M9ln4yYFw+nEm2+8QRyXZXecbFhs/uIfACEtqyrsnrQpDB1OZ3KGx91IuA7p6uJXPiY/QrmKCAkgMSnjtnKSC2fPkO1xYyiFosWKZ3rMnj00u4wKwGMvSk5iwF0RVfh8J62UWbo9ONiL4SXDgHSPu/hMAEoASqJmzdp+xPEB5RCKayApT778af595MhRKFOmHEkieLMtAFCIu3oFg1/g3WHvJJxs2GDajBmQQXR3tBlZu/Z/Gf5u3/69MMgKGNGEyQ62b99ONowSEhKKAqEFMj0mOYlul1GlaCrBZgcUK7iEEOaQRiXPQxp//fUn4fAZUKasvb1Mp8+cJpyzYa7fSa90/6Sp06CRXrvM/idDKez4Zxt++snzxHaWO3CyYYN69epj4KAhllYZVQCuXr2a4e/PnbtA15jIPW+cQ/sPkNwlCiFQu47nu1tNo+vjyub1nLKEavdVIQSqVavm+UDCndkNQ6FY0WJ0Ab1qk7LqrYKQEjVr1rztd+GlS6Nz1yfJSvqnLrCudB0T3x+HS5cukcRm2Vtu+c7I9nr27IX77q8ckOJFAHDmzCmyWAKAEjn/m+7gwYO4GhdD0lEjBFCxguc7asrXX2RhO/s7gYKCw6GhXLlyHo/9Z/cOsmytYIFQFClShCSWN/773yWkyYYAEBSUcfXTl19+BaVL30XWnvtrRykFZRgYOpSri94JONmw0bhxE6Ckdb0bmb2Y/547l3JPIXwt6uUaUzcUkJwL5mwsWbLYr4t2mom2UkPLNp4rSFJ1fSsAZ05lPCE4x0m1OaCvE5iFEMgXkvkw1k0yZe6Sz+255ojk8bpNGlIKkOaZQiCscOb70/znvfchSFbWKdxcAySgDIWTx45i2tSPCWKz7IyTDRvdfffdeKBuPWv2T1Eq057hG4k3zIJe/tzHC3dTCqtWr/I9TjaxYsUKki26BYDQ0BBUrFjR/5PKgvMXztnanlXWrF4FSbTra/6Q/J6PA/DvxQt+J37mZ0mg0n33+RUnqyIjI2nnTSkgpGBopodUq1Yd7Tt0gCCZLJr25A1dx8L587Bjxw6C2Cy74mTDZp06daS5sKYjs7CxsbGkbRlE29QHyrx530NPSoK/V22zZLVArdoPUJyW9+0qhejoaFvbtIoQ3hYY9xBHSlS+r7J3xxJWjXU47N0PyUnwvk1NCKCyF0X6Ro9+E0WKF7fkZkkZBsaMGkkel2UfnGzYrEWLltb0bAiBsmXLZvhrspUoAKAUdu6kKU4VKPO/n+ux2qe3pBR4pGkzr46lnLMRF0ObQAbKpg0bSd6fyjDg9CIJ/v33FSTDWWaiCTRqZO8eQUePHSNfEJYvT16vjpv4wYeQjiCfl89nRCmFK1ei8cpLw0jjsuzjjks2VqxYgXfffSeg51CyeEm6uhuuq44QArVq1Un3kG/S7Mfhf8sKwKkTJ/2OEyhLFi9C9KVLZDt+5s2TD+3atffqeKeTsBqjUvh+7lyyeIGSlJRIEkdIiaYPN/V43KmTp9M+zsevbnfvSGKivfOX4mJiSOv2CCHRsLF3CVO1atXQus1jkBbtbv335g1YvHiBJbFZYN0xycax48cxsP9zePetN7Dq12UBPZdSpUuR9W5IGOauihDInz/98eo8QUHmbq9+Fh5OPbFU6U58PetLP6IFzpdffpZSTdUf7gJnDz/awuvHVK5ahaxjSykDa9dlXFslpzhx8gRJHAUgSff8xX/6zCm/90Nxtycg0K1bN79jZcWNhDjSnkolZJYSprFjx6JgoUKu6eJ0lFLQdQOTP/wQVzJZxs9yplyfbBw9ehSDBw9Er6efxM5//oFSgG4IfPvtNwE7pxIlS5LGEwIIDQlBqVLpV5TcsP5P2mEUmOv81/5vDWlMO0ycOAGxMXFk3dBSSgwYMMDr481y5UTzBZTCvt27SWIF0iWqXiYh0KlTF4/HnTlzlmzKgyQoRpYV+w/sh6FohzCEUGjWzLthQLcPP/oYQmqW1fcbOuQFiyKzQMnVycb48e+iV4+nsGPLljSbMxlK4Y9Mqm1abc/OXeS7wVa+P+OJcUI6LJkmEhV1FKdPn6UPbJHNGzdi2Y9LSHo1APPL7f77K2eY5KWnWvXbCyf5RSmMH/8ebUyb3Ui84XcMpZTX82GuxV/zuz3AfP3vIq0/4dnFCxcARdujoPuwIqt69epo+3gHCNdwCuVmbTAUjh4+gqlTptDFZAGXK5ON8ePfQ6P6dfHL0qXm+v1UEwGVEDAgcPjAAWzevDkg53eDsGQ1YF70ypUrn+Hvjx45aEm1SWUYmDRpPH1gi4wY+Wqaeg7+kkKgbdvHs/SYYkWLkE0SVa6aBb8sC+ywoD+ir1zBjYQEv+NIIVCyuHc9hlFRR0iGUQAgyIZtCFLbunUr6WdZCIF7K97r02PHjBmLsKLFLNj3SQGGjvnzvuPlsLlIrko2vv3mazRt8hCWL1tqVqdzbbSU5rOpAKEMGIaBGdOn2n6OBw8cQMwVuiWLCuYF46GHHs7wmPj4BEsqlyqlsO3vv3HgwH7y2NR69egOPSmJ7EIthEChsMLo+tRTWXpcj169yUo/A8L8e5TC2DGjiWLa63pCAk1PkxDIHxri1aEOSTWQpXD3PRmvALOCEMJ18nSf57wZzPXyxoSJH0A63FvR05JQeP21EcRRWaDkimTj+++/R7NHHsYXM2cg+UZCmqqQ7lp1bu5JTUopHD182CyQY6MlixeSlhoGBILz5EHDhunPJt+7dy8MQycftnEzdB0jR7xiSWwqvXt2x7GoI6TPgRACvXr39emxRcLoejcAc6LomlUrERUVRRaT2tWrMen++7KlS0E1gaKCF0XV/lizxizkRrTzbqlS9g6jbPl7s+t9TPderlLVi71kMlCjRg20adfOkvkbhmEgLuYqXhvxKnFkFgg5Otn4Z8cOtGndEjM+mYobCddgGCpr1xCl8NGkCZadX3qW//ILDKL6DoA5ObR6JhtPURfzupVSCtH//ovx771raTu+6t2rJ44ePgJdJ0zwhECxkqXQvUdPnx5erUYNunNxMQwDA/o9Sx6XwvLlv+Cll4am+ztHkIOkt0kIoKgX+5MEBZt7gBDt9+pVm5QcDtphGwGgYMGCfsUYM+YthBQsQF4/SAgB3TCw4a8/8fPyn0ljM/vlyGTjr7/+RK+eT2PwC88j9ko0lH5z8mfWcg2Fs6dP2zac0q9vb9e24ISbcQmJps2bZ/j7Y8eiLN8RXtcN/PrLT/h61hcWt5Q1vXr2wJFDB4h7kgBIDaPfeNPnh9er96AF49zAtfj4bJdwTJ86BRPHvYtSJdKfRBu5aRNNQwq4p4znIY2169a6yvb7T0iBiAx6FK1y5OhR2u1+BVC9uv/J74QPJsNhwa7WAoCu65g8cSIunMsd5fnvVDkq2bh27Rp69+qFkSNH4MihQzB0c/Kn8KOChKHr+H7OHLqLXga+n/MtDu7fR74veJ48edGly5MZ/v7oEeKLUwZ0Xcc3X83C1r//trwtTy5duoQnnngcRw8dBKgTDSFQvXpNNGjQwOcQXbo9aUkCqJTC3t27MaDfcxZEz7pJkyZh/vzvoTuTUb58mXSPEURLR4WUqFXHc8l40sRTKYSGeDdPJLsSQiIiIsLvOA/UqYOIhg0t29U66cZ1vPzyi5bEZvbIEclGXFwcXhk2FK0ebYIjB/cBzuSUL1CVkmr49iZ3X/THjvX9TtWTBfO/w2czPoHTMMjK4LiX+rVp3yHT4xJv0Czz84bT6cSwoYPww8KFtrV5q0ULF+CJdm3x79kz5iRh0ugKmqbhy1mz/I70QP2GUBYsGzQMHXt278KA/v3IYmbV1atX8Uz3blj2wwIoXQeERHiZcukee2DPbp/n0rhLZgsAyQooXLiwx8cc3LcXVIMo+UIL4O7wcJJY3li2bCmkazWVkQ0v3ZMmT0G+AgUt6bUzlMKJ48cxZfJHFkRndsh+79h0tG3TCps3bYQylCUTHZVSiI25gjatW5LHHv/uf/DJlCnQCe+olFKQUkJqEr169c302P3794N2i8jMGYaBKR9/iAkTxtnWptuwoUMw9eOPzAmxFsQXUkPvvjS9Bl26dIEg3Sf8JsMwsHv3TnTr1tWS+JmZOXMm2rdri2NRUeYcKihIIRAR0TDd40l6GoRAwYKhKOLF/IkbCddJPg4CQP78+fwPlAUy9SomordOyRK0BQZHjhwF4aAfTgEAQzewcNHCHL8v050qRyQb1VyzpanvU9NQCrFXotGmVQts3rzR73DnL1zAU1064tefl5EVkXJzd1XWrx+Bu+4qkemxzmR7920AzCGVn3/8EU926YRDhw5Y3t43X89C4wb1sOXvzTB0ixINIVCuYiU8P2AgSbxmzZqhSJGirteScGWK+391HWdOHMdDjSIw99vZZPEzsmrlSjzVrQvmzv4aelJiSq+SgIChFPLmvX2jr61btpD85UopBAd5t5HY+Qvnad4fQuC+e+3dWn7btq3kN1tBeYJJ47Vu3RoNGjYCpAb6xbBm/Y3XR71GHJfZIUckG3Xq1oV5SbbmTtBNKYXYq1fw0osvYsKE932OM+6dd9C5QzucOnUKhrKmX0EIYNgrwz0edzk62o4pG7cxDAOnT53Ec717YdTI4Th8+DB5G198/jlaPtoUsz6fad4hu7qYrXiXKCjMmzefNGarlq1dyQblC5Tqr1c6jOQkzPx0Ojp2eBwrVqwgbMe0fv1f6NWrJ95+czROnTgOdcveJApAkSLFEJLO3Ib4uFiSFQxCCFSr7t3yTboaJ7ZMhUojIYF2SFRKiWrVq5PGBIDJk6cgf0gI+c6wAFw3hZcxYoTnax/LXnJEsjFw4Auui5L1n26lzDX4y35cghaPNsXECeNKoyDvAAAUWklEQVRx7twZj49bufJ3DH5hIBpH1MPyX8zeDMMwYAj6p1gIgXoNGma6pbwbda9KVpgbK+n484+16PNMdwwa2B9LFi/yK+aSxYswoN9zaNigPmZ/PQvxcbHQdYO2XPItpKbhjTFjyeMOe+kl8p4NN/fzoQAoQ+HCuTN49z9voXOH9vj885mIvnzZ59g7dmzHR5MmocUjD2Pk8Fdw5OD+VEX00s5BEUJkWGWTcmWFNxMTN67/i7RU/UNNHiGJ5a1zqVZjCF/nuaR6rxkKkMKaIY/XRo2G5nBYMuyt6zo2/PkHlixZQh6bWcead5oF6tarh21btlhWnCo1AQUYCtfiYrHsv0vw04//RUhoKCrddz90pSAhzL1WhcDZ0ydw4fwFaFICSqXZ8EwIkaZUOs25AQYExr71H4/Hzpv3PQRx+75wv2b/bNuGndu346OPJqFq9RqoU7sOQgsUQJ8+fdN9XNTx4/jjf2tw+uRJRB0/gUP7dkNKafZipJr8KQTIJt7ecuYQWhAe79gR7Tt0tCA+0Pe5/8M3X80iTwpTPx/uZ0rpTpw/dxazv/ka33z9FcqUKYfqNWogPPxu3H9/FTRqlP4yzsWLF+LcufM4uG839u3bj+SkJCil0imel/7rUKVG+vvBnDp5Au4av/68fkIINGiQ/pyQ1A4cOECWlCooJCY7PR9I6OzZ82kSOp+es9T3bEKgcZOMKw/7o1WrVvjpp5+wY8tm+qXnMG+ipkyehLbt2iN/3jzk8Rm9HJNs9OjVF9u3bQd0ez/ggKuSXWwstm/bkvJvKZ9Z15p9Kz5Q6VGahn7/1x9Fixb1eKxhGDZODfXMrKytAF3Hvl07sW/3LkApfPHZDAC33526v4DdF1h3T4ltpAO1aj+AUaOsKwXe7/mB+HHpUkT/e9GyNlJTAKA7ISBw+kQUTp+IAoQ5QGmWwr7lNVDmOKBSRsoKqKwm/HoG276fP3cOJDOxlHcTx69fTyAtV//UUxkvObeCMzkJlP27QgjoTus+T9OnT8fDjRvCSEq0JL7udGLwwP74ZvYcS+IzWjliGAUAIiIiUKJEScvWcWckzUXMNcSScnGzedBWCYkyZcuhX//nvTr+wL79di5EyRKlFJRhfoEZug5D16E7nWl+DNdQlPLyy4SUkCgUFobPZs60vKkRw0ekXWlgC5XyvLqH/PT0XgNdT1PuPquvg7lvT5N0f3fuwnnzGP/+EEAIdOnieWv5Xbt2k0wyN5Mue1+vQ4cOIZl4srdSCs1btCCNeasxY9+C1Nx7pxAvRDcMHNq/DzOm2b/HFcu6HJNsAECnrl1tTzZupYRI82MnTZNYuHCx18dfjYlBdsw2FMRtz6M3P3YRQiC0QCh++22lLe01fbQ56j1YH9KipbC3ulmZ5mYxPI/Pv1/DHOn/e2Kie2M8//5ubxO1xOREmmWvQiBfPnu77mNjYyyoG2O91q3boEGDBpDEn1/39UAZOuZ9Pwd79uwhjc/o5ahko1fvPtC0wCYbQqk0P3ZxOBwY80bWJimeOB4VkJUongio255Hb35sOTchkK9AQaxa84ct7blNnf4pgvLmJ99fIj3qlnQDuP19fduPj19zSik81q79bf+ekJCAhLhY1/n4RirDrLFRxPOQIgAc3n/A57ZSvypKChQjrk/hyV/r/oAwbg55+DtHSQiBe8rc4+9peWXy1E+QLyQf6cor9/VAuXY+HjXyZZK4zDo5KtkAgAEDh0DTtECfhq2EFHi8Yye0bX/7RTszV69eteiMcichBEIKFMSaNWsD0v6UqZ/AULAl4bCLEOkvWL8WH082KbZQoUJeHacRlEYXEIACSpa0d7dXh4O2HgYAhBXyXHGVyqBBwyAsqb1hJrRXLl/B2LH0K8YYnRyXbDzTuw+KlihlXsRy0UU5Q5pEg4jGGPna61l62LFjx6A7ndYUnchFUmb3C4ECBQtjVYASDQCoXbu2OR/HvV13duyWygIBoFTJ9DdgW/rjEr/n4ShXG8W86NnYuGkjyeRiBQUhgHAby5QDwPat9CvxwooVI42Xmc7duqFW7bqWJdLKMLB61W9Y/jPvDptd5bhkAwBeH/0GhKbZP2nQZkIIlCtfHh9PnZblx168eMG1ZCZ3P0f+EkJA0zRUrFwVv69eE+jTQf/nB6B5ixbQpJbzeziEQMEM9isJDgr2u0NduNooX7Gix2OVa6k6lQIFQslieYvy/IUQuLeC5+eN0oyZM+FwBFnytlYAlNOJDz6wf5sE5p0cmWxERESgWbNmAZjBbw8FASElylWogPnzvZ8QmtrZ06chlFX1J3IPITXUrlsXc+fODfSppHjvvfGoUrWaq9s5ZyuWwd3zRpJdls33dvHixT0euXnjJr+Wp6ckRkpBSg2PNG3ucyxfHDx0gOTm6uZcB+Cuu+wdCgKA10aNgpDWVFwQAJITk9Gr59OWxGf+ybHf1u+Nn4j8oaG58qtUaBrKlq+AeQt8SzQAYN/ePVDZoKBXduSu2akFBeHZfs9j+gzrl7dm1axvZqNK9Wo5OqEWQqBipXvT/12qlTe+rjRSrjbqN/C8Rfr1awlmuz61lGqHWWFOSLT7daG6zqVM9JUa2j2e+Y7RVmjfoSMqVqps0RC4WY4g6vBhzJ79jQXxmT9y7pUMwH+X/gRp0Q6DgSI0Bzo80QnzF/hX1jvnLZKzj5ASYcWK4vNZX6N///6BPp0MffXVbNRv1Nj8YsuRw2EKmpb+5/P4sWM0d+rw7ov4SJR7bx7/54nkC8mP++6zbxO2yEiKXqC0BEBet8Nbc+bOhbKk106kFA787NNPsGPHdgvaYL7K0clGgQIF8erwkWap8BxOCQFoDnTu2g2vv561yaDp2bGd5oPm3s4+NxBCwOFwoFHjJli+YlXKbsLZ2ccfT0XPPs/CERxs3lUH+oSyQAiJzl26pfs7ipVSAkBo/hBUqlTJ47GxMTEk+ZoAYFhYdTM9Fy9cIIvlXuxUrHiJDPesscPgIUMgHEGkw7zuWEopaBB4a4x1lX9Z1uX4b5FOXbpi5Oujc/RyWCklQkMLYOIHH2L48BEkMRVoKpxqmobOXbvl+IROSomChcIwfuIkTJo8OdCnkyUvDBqMaTM+Q1BQELQcNmk0OfH2UtV79+4lKWCmAOjw7os/JjYOVDUe6tR5gCSOt44cPkI2Gd79rOsB2PYhtZ49e6Ny5coA6XVFwP2VpqBw6fIljBw5kjA+80fO/gZx6dCxM14e/ho0Tcv2E/jTllIChCMIEY0fwur//YEmTdIv6+yLS/9eMrsU/az8KB0OvDriNUyd8Tny5s8PIc1/t2avUlrCtQLBkA489Uwv/LZqNR62eadOKnXqPIB1Gzaj1gMPQmiaBVvT03D3vQghUDisMEqVLn3bMZcu/Qulbr5/fC3YJoRA5Sre9U4lurZnN3y85ImUJdKAbtjbs3HBVdadgnJ9cqvXqEEW01efTP80pZQ5DcP1A0ABhq5j/bq1WLLY97lvjE6uSDYAoEvXrhg56g0IIXNE/Q0hJPLmy4/x70/AR5OnkMdPqSng41Ph/i5zz1ivW68u1q5bj8fadTSHfKTIlvNCUpI5IQAtCI80b4HIyL/x4ovDAn1qJD6dORMDXxiM/KGhxBdqWpmV1nZvlZ6y+agf76Ngh+ehgNOnT98sIOb/Riy2D79dunwJlImlEAIOm0rjZyY0NBQDBgy0rFdaQEAZOqZM+Qg3kpIsaYN5L9ckGwDQoWNH/LD0Z9xdpiyQcveX3QgIqaFdhyew9s/1aNq0GXkLP/74o/8Fk1wPD8kfkubfx4wdi8VLlqFmnTrQghzZ4jlO/bcKIaEg0Kx5C3w3bwHef39iAM/MGr379MXq/61Dy1ZtYUgNIhsMcbnfBwpmsT3pCMJDTZqme+zevXvJ2q1Vu47HY1at/J10gm1hLyuWUjl18gT5/OCIRo1pA/qoT58+qHBfZUtryujJyRg2eJBl8Zl3An+VInbXXXdh8Q//RY9nekNlk14OIYQ5yVJqeLR1G2yI3IrRY960rL3r1xNI4gghUKVKldv+PTw8HDNnzsK3c+ehRs0akFJCSmn7sIr7tdU0DZqmoVBYGB7v2AmbtmzHuPcnokKFCjafkb3efucdREZuwWPtOkBqWkBeAzf3RGIhJWo/8CDmL1yM119/I91jb9y4Doo7dQHz7tgTXdeJvswUpBRo+qi9NTacBv2QZb68+Ygj+m7OnO8AIV0DPL7vw5MRpRT27PoHn03PenFERifXJRtuQ4cOxW8rV6FBw4bmRfCWi016H95bN6jy5icjKbUcpERwniC0aNUamyK34L33xpP+nek5cuTwzf/w43OrACQnZzw+XbFiJXw+azYWLVmK1m0fQ758IZCSrkcpozhpStVLDQ0aNsKbb7+D31auwajRY0jazknGjB2LDZu34IVBQ1CiVCk4NA1SZl7OP8uvUHq31kIAQsARFIS7w8PxXL/nsTFyKz6dORNlypTJMNTunTtTXkMpRMrQp8zij9AcaPTQQx5PfcOGjWZ7UkIImeV2pOuxUjogNQdKlLRvE7ZDhw4h8UaiT89Puj9SAkKieYuWtv0N3hg4aDCkIwjC1VNH8rem+gGA77+bg717dwf4L71zCZXba34DiI6OxpTJH2Ld2rVwOpPNbvdUlfTcfJlMmTIhzv3fUsIQEkopVK9aDU92745Wrdv4+RdkzZAhg7EtcjPc6ZNvk0QVNE3DtM++xAN1PHdVu61YsRybN2zApk2bEB8f5wql0vyv12845Zp7Ydalds1YFSgaVgTVqtfAY+3ao8kjTb0+tzvFpUuX8M3Xs7Bx/QacP38WUoiUoSalbr4bvH0dzJfg5v2mlBIOKVH+vsqoX78+Xhg0JEvnt2njBuTPnx8njh33uaqnUgYaPvQISpUq4fHY48eP49Spk7hxIxFK6bgWGwchvL/PUsrAXeH3ICwsDCEhBRAefvukVyvt2r0bCfFxOHPmDLQsnPetlDJQtkJF3LhxA40aNSI8QxrHjh9HcnIy/r14EefPnfXrb02P05mMehERKFe2HGlc5p07ItlI7c8//8TPP/+MHdu34nrCNShDpSwTFZlMartVyhi1EBAQEFIgLKwoIhpGoEFEY7Rs2cK6P8KDp59+EsePHjX/Jh+TDQFAahKTPv4EDRs29Ok8jp84jj/XrcOxo4dxYP8BnDx1EoBIk+xl2L7rzrxQoTCEhoai3oN1UfHeSqhWrYa5ZI55xelMxupVK7Ft6zbs2b0b1+LjEX01GspQMFTG7wx3dU4hBIKkxF13342K91ZEsaLF0aJ1K1SvXtPOP4MxlsPdccnGrRYvXoh9+/YhNiYG+/bugTPZCUM5IYQDN65fN78YhbmMKiQ0FAIGdB2oWrUagoMdKFuhAu69tzLatWsX6D8lxcMPNYIzMRH+9WwAjqAg/LUxkvbkXBYsmJ+qumTqt6BAvjx50L6D/aWU7zRLFi+GAQUJAeOWNFvXDXTv3j1AZ8YYy23u+GQjMwcPHoTT6YRhGChXrhwKFCgQ6FPySqOGD0Lphl89GwAQHByMdRs2E58dY4yxO032XaifDeTE7votkZHmbq8p8yN8SzSEEChfMf1NtBhjjLGsyLWrUe5UsXExZDUFQgt4XlbIGGOMecLJRi6zZXMkWbJRsoR9S/wYY4zlXpxs5DIyyEFWEufeSjyMwhhjzH+cbOQyW7duIdkhUgiBEsW5Z4Mxxpj/ONnIZTRkXjnSa1KiectW/sdhjDF2x+NkI5c5efIESc+Gr5UdGWOMsVvx0tdchqJXQwiB8LvDCc6GMcYY456NXGXFihU0K1GUSlXdkzHGGPMPJxu5SMzVqyRDKBACNWvz3heMMcZocLKRi5w+eZxs2avhzHhrecYYYywrONnIRcxdVf0nhMAjjwZu11rGGGO5Cycbuci1+HiSOAKARrF8ljHGGAMnG7lKVNQxmmWvSqFh48YEZ8QYY4xxspGrOJ3JPj9WperJkEF5AO7ZYIwxRoSTjVxi29a/oQgKcQkhULp0aYIzYowxxkycbOQSefPko1n2CqBo0WIkcRhjjDGAk41cY/mvv5LFKla8KFksxhhjjJONXEJqgFIKvs60SP3IypWr0JwUY4wxBk42co3t23YAgF9DKcq1YyzPDWWMMUaJk41cQind7NmQvmcKQpgTRJ95pifhmTHGGLvTcbKRSxw7dtzskfChY0O4fgBAk/yWYIwxRou39swlihYrhpDgPDCzjaz3buhCAEpHsaLFyc+NMcbYnU0oqvWSjDHGGGPp4D5zxhhjjFmKkw3GGGOMWYqTDcYYY4xZipMNxhhjjFmKkw3GGGOMWYqTDcYYY4xZipMNxhhjjFmKkw3GGGOMWYqTDcYYY4xZipMNxhhjjFmKkw3GGGOMWYqTDcYYY4xZipMNxhhjjFmKkw3GGGOMWYqTDcYYY4xZipMNxhhjjFmKkw3GGGOMWYqTDcYYY4xZipMNxhhjjFmKkw3GGGOMWYqTDcYYY4xZipMNxhhjjFmKkw3GGGOMWYqTDcYYY4xZipMNxhhjjFmKkw3GGGOMWYqTDcYYY4xZipMNxhhjjFmKkw3GGGOMWYqTDcYYY4xZipMNxhhjjFmKkw3GGGOMWYqTDcYYY4xZipMNxhhjjFmKkw3GGGOMWYqTDcYYY4xZipMNxhhjjFmKkw3GGGOMWYqTDcYYY4xZipMNxhhjjFmKkw3GGGOMWYqTDcYYY4xZipMNxhhjjFmKkw3GGGOMWYqTDcYYY4xZipMNxhhjjFmKkw3GGGOMWYqTDcYYY4xZipMNxhhjjFmKkw3GGGOMWYqTDcYYY4xZipMNxhhjjFmKkw3GGGOMWYqTDcYYY4xZipMNxhhjjFmKkw3GGGOMWYqTDcYYY4xZipMNxhhjjFmKkw3GGGOMWYqTDcYYY4xZipMNxhhjjFmKkw3GGGOMWYqTDcYYY4xZ6v8BMV2SYCoV4FUAAAAASUVORK5CYII=;" vertex="1" parent="1">
          <mxGeometry x="260" y="376.63" width="70" height="40" as="geometry" />
        </mxCell>
        <mxCell id="rQX5XiQ9qI0IQF0qjAlr-7" value="" style="shape=image;verticalLabelPosition=bottom;labelBackgroundColor=default;verticalAlign=top;aspect=fixed;imageAspect=0;image=data:image/png,iVBORw0KGgoAAAANSUhEUgAAAhsAAAE0CAYAAACFNfHDAAAACXBIWXMAAAsTAAALEwEAmpwYAAAgAElEQVR4nOzdd5xcddX48c/53jtlSzadmh7AUEIPSO9VehN4xAd9RCn6ICCoiF0Q0OenIih2pSk9BBABwZCEFFKogUA66T3Zze7OzL33e35/3NlNQtru7MzObvb7fr0C2ezMvWe2zD33W84RVVUcx3Ecx3FKxJQ7AMdxHMdxdmwu2XAcx3Ecp6RcsuE4juM4Tkn55Q7AcRzH2TFk1iwlmPEqudljsI11IIKfrsYbcgyJoUdQsfOQcofolIm4BaKO4zhOW6z/YDSZ135DtGo+Zt3HSJQjEh+PCFSx4mGqd8bscxqpQy+lasih5Q7ZaWcu2XAcx3EKkgUanv4e4ZQHiHIBohGeDbBAJD6KoCIYBZ8QVJHKniT2P5fKC+8g4SXL/RKcduKSDcdxHKfVcijrH7mecOrDCBKPYGAIxUdQPEIUQVBAsHgokCBCUcw+n6HmvB+R7D2w3C/FaQcu2XAcx3FaJQvUP/I1gjefIMDD2BAAg93m8xTBYBGUSHwYcBi9Lv0lqZ3cWo4dnduN4jiO47RK/VPfJZj2GFmSJKIsKdsYr8/YDqMRqhCSQNSSmP86DQ9+kczqhe0QtVNOLtlwHMdxWqz25XswE+5HEZJRA4aIBq8bFm+7z1UxIILkR0CsQnbJDDJP3EKu1IE7ZeWSDcdxHKdFGuZOIzfuPhrVxyp4WAJJ4mmIp8F2nx+v2xA8jaddQkmgquRm/ofal+4pdfhOGblkw3Ecx2mRhld+gdavxhKvz4jEw2AxWKxsf2TDECFo82MNFk9DVC3RuPuonz25xK/AKReXbDiO4zjbtf7tF4jmjge1JOz2RzFaQhECSSI2QtevJjv2fopzZKejccmG4ziOs12ZyY/gZVaTkTRWpGjH9TRCgdBLE01/nobRvy/asZ2OwyUbjuM4zjatn/0Gwfw3UAxGFS3SpUNQBIuKQWyIVQgm/pXs+pVFOb7Tcbhkw3Ecx9mm3JsjMQ2rifDwW7AQtDVUDIrEx1VLsHwm9c/dXtRzOOXnkg3HcRxnqwK1RAunYvJTJypNVUGLR9B80gEYn+jdUdR9MKao53DKyyUbjuM4zlZlP3gNXfbhdmqDFo+xATZTR8NLdxKFmXY6q1NqLtlwHMdxtiqcPR7Nrqe9GluYfO2OcP401v/7vvY5qVNyLtlwHMdxtipa8i7GFG/3yXbPJz6eBqRMRGbKIzQum91u53ZKxyUbjuM4zhaFjeuIVszBtuOlQlQxGhEq6JoFNLz0s3Y7t1M6LtlwHMdxtiizeCbUr4AiLwjdFpV8DxUEIxB+8CLr3/1Xu53fKQ2XbDiO4zhbpKvnQa6hPXMNYMOUjVUwufVkX76LIGhszyCcInPJhuM4jrNF4eLpoGG75hqaL/XV/LFCbvEM1r98bztG4RSbSzYcx3GcLbLLZ2I+cfFvX4oqeGqJ3niAzIp5ZYrDaSuXbDiO4zibyaFo/QriaY32SzYkP7bR/JEIFiWsW876l/5fu8XhFJdLNhzHcZzNhCs+xq5bjAWk3Up6bZnFxFti3/4HtVOeLmssTmFcsuE4juNsxi75gKhhTRmnUDbwNMTTgIw1NL7+B4L2XbHqFIFLNhzHcZzN6JIZSJBtU7IhFOciE4mPZ0NElWjeVOr/5aZTOhuXbDiO4zibCVfOJvJSeAV2eRUUW9kbr2ZnjEaIUnDiIiiR8QDF95TojQdoXD63oGM55eGSDcdxHGcztnYRCQ2IxC/o+UYgMfQouv/vP4l2GgYGjBa29iNeMJrvOquQWbeMhhfvKuhYTnkU9lPkOI7j7LCCxlrsqnn4mqORCjzCVh8jskKqZ3/8nv2pOvY61j/3HVKZdQRtvOwokCQgmP5P6qaOotsh57TpeB1NbukMcisXENUuI1w+C4lCwOKhqJfC32kopt8BVA7Yv9yhtopLNhzHcZxNZJbOhvrlhPgYolY/XwTE8zH9DwKg5sjLyXzwEuH7L1CMcqQhPomwkYbR91A5/CS8ZFWbj1ku2VULyM16g3DhFHLLZqFL38Nk1mKjCBFBMVgxeBohGpLBw6uoYX3/Q0ntezpVh1+Cn6go98vYLpdsOI7jOJuwaxdDGOUXZuaw+V4l2xdPdwhAuhvJXfZq/kzVUV9k3dwJpBpXEcT36YgKSGHJR6SCt/Rdasc9SM8Try7oGOUQZBvILXiH4MPRRPMnEa6ai9QthyiHjxKIj9X4q62qQETCZonEx+JhsNC4Bpn5b3KzXiX7zjNUnXg9VcOOK/dL2yaXbDiO4zib0CXTiaIQxMv/y/YTDdG4IodK/tHpniR67NL8+aphx5LZ/zNEEx7CGg8kwLOKlcIWjRoNCTSFTPwjDYdeRGVNn4KOU2q5TD25edOws1+nYc0iZMk7mFWzsLkMmARxyTLiEQyIF6Ww6fhP07oZiVM0IgQ0/tibM5aGFbOw5/+cbvuf2t4vr8VcsuE4juNsQhtW4YkSArY54di2psc1Vf+UPoPxK3ts8piqE77GulkT8FbNwaqghY5qiIdvA0QjwhVzybx4N5UX313QsYotB9iP3yacMZpg1WzC+VOx6xYR5HKkNRtXRBUPKwnQtlUxUYUQwatdTDjyBhr6Pk3lrntt/4ll4JINx3Ecp5liyS18By//UcufJwiK0YgIj+ROm1/00n0Hkzv2K4QjbyFQj8CAr61fE+JpRHxzb4j8JEx9mLoBI+h2+MWtPlZb5RR05Xyy86YSzp8E814nWr2EbLaBhNi4/LpakqqE4hPigQo+AaIWlbZvCg0lgaxdRnbcH6i8+GdFeFXF55INx3Ecp1mwciGsW5RffaEtviDGiUb82AgPU913i49LHX0lwdvPwJw3SGgGpWUjJ588VyBJPCIkihA1NI7/PRUHn9UuiyVzqxfRuOAdojkT0fkTya1bitSvQqMAIwZVxceCtUTiIZh8yXfFJ6RpbUsxEg0AVFERojnjyTSsI13ZvTjHLSKXbDiO4zjNgjVLkNz6+EKotPiCKFhCSZDSLFJZhT/4sC0+LgWEJ91A46IrsdlcwXtTBJqrb1iUaMF7NLxyHzWnf6PAI25dzkYEsycRfTSGzPzJyMqZULccay0igofGF3wENGpO0FQMRqM4EZB4Z4/kE4NiMvmRHrtuMeGcN2C/U4p6/GJwyYbjOI7TLFgxC3L1TesUW0wxGCxqDCSrSPYdtNXHVg07lnC/M1k/9Qn8/ALJ1hI2LEhFwZeI9ZMeIrHnsVQM3XKi01I5hWjhuwSzxhPMHY+unB03pWusxTOCanxepWnHSBzRhuA2JGhNyZppjrf4vWZUhAgw2Tp03dKiH78YXLLhOI7jNNOFb4G1BZQWl3i9hniYip5429kdkj7jVnLzJqGr57c6sdkSi+DXLabxpTupuOapVj8/t2QG2TlTycybRLRiJrpqDtK4lnjTr8USL+pUjddhdLRecHGyF3XYsuAu2XAcx3Ga2WUfICKtvpgajbDiYVCk92C87Vz2Uj13I3nCDWRGfhOJsm1OOEQtgSTReW+w/s3nqD7orG0+Prt2KcHcKYQzXyNc/hG64kOihnWgikeIqCXEJyc+qE9Ss/ga1x6xYpp33XQEkt88G0iSlJ8qdzhb5JINx3EcB4AgzGLrVhY8rWElgbE5ElvYibIllZ++nGD6P7HvvxhPhwBxy67WRxAvUA3xwojGiX8hedBZJDf6fC7MkXv/VYIFb2PnTURXziJoWIsfxZ1tLU21QiDEQ/ERLAmbRYBQklhJxaMHGsVlUjsIBTwist12I7H7vuUOZ4tcsuE4juMAEC6didYvLyjZUASjigh4fQa36DkJgfSJN5CZO5kotxas4qliC7iOa360IcIgc16n4bGbiQ48l9yqBQSzxqJL3sau+RhymXyeIBgg0jj6ptcQf0abRy5UPBTyUxT5bbodKNGAuHNKUgLSvfuR7ueSDcdxHKcDs/Vr0ShX0HNVBCMWk+6Jt8unWvy86iGHEIy4iPC1PyEGQqOYNsxQKIC1ZCb9jcap/8DYAGzUVEQ9TiM6zgxIUXhEZK2hasjR5Q5lqzrqWhLHcRynnYUrZkMUFrT40eLjYaH3YGTAAa16btUJXyPRZxAJIlrWg2XbmmqEJIJ6sBE23nTagVZZFJcRwfTsR2rEZ8sdyla5ZMNxHMcBwC54E7GFbUW1IvGah0SaCtO6S0uy+y54x11L1q/EL1JGoAiBJAjx81M8cVGtHY0AkSr+vmeQ2sZ243JzyYbjOI4DgK6eh7awF8onSX43qPYYUNDzexz9eZLDTsjvqxCMhvnmZIXFA+SfHY9pxPUtOtZai0I1JU9GLYjB6z2EqmO+XO6wtsklG47jOA6ZKCDK1CG0vlcJgEdIhIffe2DBMaSPvZZEZTWIIWja+UFY8PE2XvC5I/E0JJAkoUmSkojE8deT7sCjGuCSDcdxHAfQhe9h1y6E/PbP1vI0IjQJkn33KDiGqqGHYw77IgnNYfOlvlEpoMDYji2SuO6HigeHXEaPIy8vd0jb5ZINx3EcB7tsNqZxDVYK3KQogiSr8HYuPNkASJ9xM97gI6nQLIopSXnvzs5oRGSSVAwZQeUl/6/c4bSISzYcx3EcgpVz0DBLWGBFBCsepqoX/q4tK+i1NWk/iX/E/2CT3bDi42n595EImq+8ETdiaa7BEddLzT8qfowQ1/zwUEyR8iTReCVL85oTMUj3XUmdcRtJ0zkqWLhkw3Ecx8EunU6UqMLTwtZIWDySFdXgtb1cdrdDzkOGnUKCHGGhIy1FFOER4WHznVJELUYjPA0xahHIJxeCWsUYH9N9V7TPMHwTJyQbEobWiZ9hEEI8G6HGw1T2pPL8u6gadHBRX2cplf+76DiO45RVDsitXoCnYb4Ha+tvyQWL7jIcv0h385XHXEXdrNdINK7JV/ksH6MRKc2gQGBS5EwaD4tPiKoQigcVvanu0w/d52xSfYcgQ49E1y2g7vcX49evIpBEvvNr63hqCYwHWonxApIieCfcQLcO2EZ+W1yy4TiO08XZ1QvR+jUYtc3t01tDADEGf8gRRYupasgIMgd+lnD8/c3TGOURT5tkvUoU8DVEbBZJVWN7DcMbcDCVu+2LN2gEXr/hpPJhZtevIvfs99GGWrJSSTqqJypgykMx+BoAPsY3+Md8ne4nXl3UV9geXLLhOI7TxYWLP8BrWIFFUGl9IzQRMMkqUru0bb3GJ9Wc/S1WL5iKWTi53Uc3RJrGdwwBhpRnkR79kX4j8AcciD/wENKDDsZsIQkKgNrHbqZh1lQqbA48nzA/stHapEkFhASYkPQRV9PtM7cU4+W1O5dsOI7jdHF26QyiIIuIYBFMIV1XUxVIt75FjSuRrKTysMtoXPwWftBAYJL5RZjaokWjFhMXKs83QwlNIr/WIsKKQfHwNIgTLBFMvnOt2giDIN12RvsOpXL3A0kNOYLE0MNIVPbY7nnXv/gLzAfPUgFEJkFCc4i0bHTGaETOpEnYeL1KUjNxB9phn6HinB9u9/kdlUs2HMdxujhbtxwj5Lubtn5dgQB074fpuXuxQyN9xOdoeOc5mPkKgSSpiurImAq87RQfE7Q5qYgkHn9I2iyRGHImhUeIpyGRSWE0wuKh1X2gx+6k+x1EYs9jkMGHUlnTugRq3av3E479DaF6xKnbph1ltycSH6MRvubImjSRJPH77km3835UtPUw5eCSDcdxnC4uWD4TxIDVeKGntG6joqLQZw8SJbgYJgRqTrmRVcs/onLd/Hyi0IIqp7rhIi8oCQ2IjI+gpMnFO0z8Cvzuu+P325/EnifgDRlBYuc9Cr4wrn/7ecJX7sZk1gKJgo5h8fA1RyRJUuRI9tiNxEW/INW7sDLwHYVLNhzHcbqoSCMaPxxHsOi9fAeSwnaiAEi33YoY2aYqhh5G9RH/TfivHxGaJMkos91iXyoeCCQ1BBT1kthEJX5VD7xdh5McdhL+LntTMegAxBSWGGysfvZkGp77IZKtI8KPF9sWUJAsoRlCSaJiSPbqh3/uXVQPHdHm+MrNJRuO4zhdSE4t4cwJZD94meyssSRqF2PXr8GXuL27FdOqIloCWAtej51KFjNA1QnXsObtZ0gtfW+z3TKK5Kd/pHlhZ6QKfgrpvgu62wH4e51Mdc/dSew+DL/Ia0sy65bT8Ox3YfVcLEKEjyetqVeycZInGFF8DxJHfJFu+55Q1FjLxSUbjuM4O7jc+pXk5k4j+Og/hHPGEa2ahwQZjEjcnlwkLlglrWhapnE1TWMsNt0DM+jwkr6GhJ+k4piraXz6RjQM0HzG4UlcGQQLvmewld2h7zAqhhxFYo8j8QYeTCpVWdLY6p+5DV0wtXnZqtfC5nFx99YIgyUinuIREYzn451wI91P6HxbXLfGJRuO4zg7oOy6pQTz3iT44GXCOROwtQsxuUbUmA1FtxUKmzaJ78SteBhVvMpupHYZUtT4t6TisEvIvfc88v7zgBCJwVbtRLLHzujQ40ntNhyv/374O5Vm/cgnRQprnvw2Ov05Cukta/Kl2HOSQsXEu2FUSe55PNWn3VSKkMvGJRuO4zg7iMY1S8h98B/CWaNh3kSi2pWIzaHig0CEFFIxezOiYCVfNdR4mJpdSSYq2n7g7fAFqj7zXeoTCdSkqex/AP7eJ1O50+CSn3tLap/8FrmJfyNhc1jxCjiCEImPIqRtI4ISDj6O7p/9ZafeebIlLtlwHMfppEKF3OL3CT4cTXbGK3irZ2PXLCTCi6tSqUUkLiVlrC1aJU4VARUSmiUrFfg771OEV9My6V32IP35P7bb+bZmzWt/Jpr4Vzy15CTZsh0yn5TP/TwijEYEe5xI90t+UfQ1JR2BSzYcx3E6kVAjsh+OJzdnInbWaFj+IUH9WozvE6iA+KgqopYov41SxSMwTR1U205U45ENjetyJHbZuwhH7TwaPhpPZvSv8LGgFlPArhOIi44pSoqAXN+9qbnwbtJ9BxU32A7CJRuO4zgdnNWI+tlTCd4eiZ0zjtzqhZhsHZ6J1wmIMVi7oRhX06XPI0LFwxCvDygeRTGEJoEngum2cxGP3bHVL3yX+mduwatbTKQSt3svcG5KsCSx2GQNlSfdSOUuexY52o7DJRuO4zgdUFC3kszM8QRz3yA753W8NfMwmbWo8YEEiJStG2q8mDGKt5n2HIg/pPPXgWiJ3LqlNDz8NWT5hxRjjEjFw5oEyWO/Rs3hlxQhwo7LJRuO4zgdRKZuFdGsCTTMHg8fvYqsmYtGIb7E3UAi8VEbtwajwKH7YlAk7jcigqnqSbr7jj+yYYH1T3yTaPkMRExzhdJCiYCnOeSQK+l5xo6182RLXLLhOI5TRtkV88jOnED40UtEi9/HrvkYYwM8LBlJx2XE8wSLiBZlR0nrbFpZVDEYQkCQZOl3oXQEq5/9CfaDf2JQIt1Sr9eWE4jX1ex7Hj0++/NihdihuWTDcRynnTUum032g1exc8cTfTwNu34Zxkb5XR7xwsEID8nXYWjqWhrvXhBUpOB1AgVRgfzoCk2lq/I7KXSX4e0XR5ms/s/v0HG/waohwhS28yQvHhEyMOgoai66E5/W9aHprFyy4TiOU2KBQm7eVMKPxpD7eDK6eDqsW4iaBPlL9hZqYGzYpPrJHhvtmmgQdyL1NMIjbseu4pFQS6CQ3H3HTjZqpz1HbvS9pIIGIknmu8VGRFLg5dP4SHVvas7+Hsma0pZ470hcsuE4jlMiDXOnkJn5OtGHrxAt+5CocR2eCAmbJUJQjRONji5hs6hnsJJCreJ5hqjHQBIDRpAadEi5wyuZhhmv0fjcbXjrF5OTBCE+PiGWQgp4QVIDMlU70+3MH1Ax6KAiR9uxiWobV7k4juM4zbIr5tPw5pPYmWNgybuEDWuJvBQoJGwGi0coSSQ/FC/NHTU6FoHmpmYBhmSyAu2+K+ZTp5IeeiSJoSNIVvYsd5glk1m1kPq/XkG0eDqWeGpL8lt+4++Z3e4xNmYEbGVP0mfdTo/DLipN0B2YG9lwHMcpguyKedSPf4DorSfJ1S4kgUckHkYMxgYAROIBQkIz8Y4ONJ6WKEqprZaKL5hNBAvqgcSbOQUDYrEKJt0T+gymYuCnSex3GqlBB5NIpNsx1vII6lfT8NjXCRe/i8SFTOJVNDYiMn4+8di2uPCZF28RRom8CiqPu57uXTDRAJdsOI7jtEmEpe7fvyH3xoPYVXMwIvh4ccNzjbaYSDT10SjPeEYcj2hcv9KgBJ5gVDB40K030ncPkkOOxd/rOFKDD2mXpmYdSd0LPyOc9RqRJPA0yP+rEJn4kmlaMKphxSBq8z1pDP4BF9D9pGtLGHXH5pINx3GcAjWuXED9o19D576eHxUQbMebEdmMAMYIiiGLkEj3wd9pAAw/l8r9zsTv07/LXhzWPH0b0ZS/EUoiThalsN0iRiOs+CiKP+Roel54e5Ej7Vy66s+T4zhOm9TPmULjqO+hH79BYBKItn4evz01rb8QGyGej/bZg8Su+1Ax6CgSe34af5e9u9wIxiet+dfPCcf/kVCFZJTBiiFn0vjNoxstF5okSQLMLsOpvuxX+KnqEkTcebhkw3Ecp5XWz5pE49+/gq5dCCJ4GoJqwXfBpSIChriAlCbSSLfdkd33J7XP6ST2OYl0Vfdyh9hhrJv8JLnX7sNYSygJEig5kyJps9gCvq8JDbA77U3lRf+PVK9+JYi4c3HJhuM4Titkls+m8ZlbseuWbLLQsr3LhzdtvzTNBaYUMBgsHpYQgySroedAEgNH4A07idSeR5Gq6NaucXYG9XOnEbzwQ6Igi9EIH4mbzKndrMbJ1hhVLBKviDE+XnUPEmd+j6pBB5Y09s7CJRuO4zgtlAPWj7wNu+idsvYmAcXTkFAS+BrGawPEAxtiKmtg1wNI9D+ExN4nUzn4IDw/VcZYO7bsumVkRn6ToHY5ng2Jmru4CoJt8U4hK0IgCaptA5lEFYkTb6Fm+MmlDb4TccmG4zhOCzWMf5ho5mg8UQIKby3eVoLgiUUkIqcJvOqdSOw8BDP4aJLDTiIx6OAuv/6iJYJcPesfvYHGhdPxUQyWgGSLdpt8kgWS5AhFSB90PjXHXln0eDszl2w4juO0QA4Ipz2KIoRq4oZo7WjjIltWPKLKnZCdh1G91/Ek9j2Vil33atd4dgT1j91E9sNXqbSNROLTaKpIaK6gY/lYQvXwDrmMbpd0jeZqreGSDcdxnBYIFkxHl3+IsSFRCRuhaX7e32BR2TB6omqRyt7IgMOo/NSJeEOPIL3rMIwbwSjI2hd+Rubd5/BEyZgKFCFtGwFatCBUkfh7BIBB8akYdAiVl/6iyzRXaw2XbDiO47RAOGcCUcM6QBClZJ1XDYqqxoWgfA9q+uMNOIjEp04kMWgE6Z0GF/2cXc26d14kN+53SJRDNf6aQ8uSDCCuKooSiUdCs1iTJLHrfqQ++2tSprC+KTs6l2w4juO0QLh4etztE4gkgSEs2bmMl8Tseyapgy4gNfhgkjU7l+xcXc36916k8dnv4jXWEknTOFJrxctGfQ3IeRX4Fd1Inv1DKncaUuxwdxgu2XAcx2kBydaCgMR1yEvWzURQbFUvKj79X3QbdnyJztI1NSyaQeOoW/FXzyfCw4rgFdCL1GDJmjQJQhKJFMkzfkD1XkeVIOIdh0s2HMdxWsJ4ROJjCPK7FeLtkcVmAVO7hOwDV5LdaW/8vU8hedAFVO40qOjn6kpy9WvJPnULmTVLSGs8BeJrFi2gXXw8fRJi/STpU2+lxxGXlSDiHYtLNhzHcVqi12A0iuJEI9/RsxQUQyQg2Xp04TQaP55COP4PNO5xAqkRl1I97NiSnHdHpw1rCVd/TIUGBBh8zRJKoqBtrqEkSGsjqWR3KkZcWIJodzxuyazjOE4LJAccAokkoSSIxC9ZW3hB45bkCFYVI0Kuvhb71mPkHvgvVtx3Pmv/cz+NtStKcv4dVarvIMzwz5C1hsgkUfJl5guQtI0EVNKQqSXz5vNFjnTHJKoFTFg5juN0MWHDWlbfexay7EMC/I3KhJdeU2JjpKmzrJKo6Y0OPIL0/udScdBn8Eo00rIjya5ZTN1vziZaswjVeISqkEqwRpWc8aiyWbKDjqTPlx7Br3R9ZrbF+8EPfvCDcgfhOI7T0ZlEmsz6Wpj5KoihVGs2tkSIp1cUQTTCIyIMcrBsBuEHL1L/7kvk1i7H9BmE73qfbJVf0Y0oDMnMHk/C5siZVGHTKMYjFYVERqB2Obb77qQHuB4o2+JGNhzHcVqocfEMau8/HxpWg8YXKc1PfBiNStj1dUNio/nUw9OIUJL4hBiBCMFU7YwMOZzUIZeT3uc4Eq7mw2YyCnX3noOZ9zpBAYtDAYxG5EwKT5W0NhAOPJpu1zxOOllZ5Gh3HG5kw3Ecp4US3foQrFlKMH8KanyMRghKzlSQso0lWzS68QiK5P80VRdVZEO30aAemx/tCN5/iWztajRVTaJmpxLF1fn4AmE2Q+6j/xTcS08l7q4rKFZ8qF2EkiC9p9v+ujVuZMNxHKcVgkwddb+7iOzHb6FiSNgsOZNG1BY0JF8KInFVTIkCbFVf2P0gUodeTvXwk/DSbpolFzRS/3/Hk135MWjb1954opheQ6m86hEq+rrCXlviRjYcx3FawfNT6O4HY+aORetWEkqSpGabe5l0FIohlCQmasSsmoV9/wUaZowms3oppGtIdO+6VUk9L0Em8mDmK1CEkvOKYBtXI4GS3te1ld8SN7LhOI5TgPULPyD76NWES2YgNmpxX432o6AQmFS+k6nEQx6qaGUP/N33Jzn8HNIHn0uqoqbcwba7HMrae86Cjydj23gVVAQjiqnsRdVVj1PZf3hxgtyBuJENx3GcAiRr+mJ7DoWPJ2Eb1qEiqMSrJzwboSTaa7PKVsSN4uLOpPHfRS0iigkaYc18wg9fIXrnWRqXf4x225lETd9yBtyuPIQo1Yvog7e3IccAACAASURBVBewFiymeT1MazU9z8+tJkj1onLYccUNdgfgRjba0fvvv8f6hgZeH/s6DQ3rCYKQd999B9NcvAeM73PggQcSBAFHHnkUPXr05NBDDy136I7jbEXDohlkn7yehnnvkkAIBEQChADRRLnD2yYRUDxUlWRlN7xdPoU5/Euk9zqSZBdZVLriD58jnPEynoYFVxQlv0g3pTls78FUff5vVPbfr+ixdmYu2SihqVOnMnr0aN5/921mfvQRURRXq2vaxLbxlz7+u+RHOuOhTpF4hbnxPIYMGcze+w7n0ss/x8CBA8vxchzH2YpsYy11T32L3PRnSWdrCakgVB8jAcVYE1BKTRdZEQ9rPLx0FRUn3kTN8VeVO7R2UffuywQPfZ4oDAjw8YhaXR22+T0dQ4KAxP7n0/2//1iSeDsrl2wU2eLFC7n3nnuYOvkN1tfXx0mEKoV8mWWjNymR/F5+z2NA/wGcctppfOF/usabgeN0FnXTnic75h6yS6aTiBpQ9UpW1rxYLAafKK4T0v8Q0kd9mW6HXVzusNpNoLD2j5cTffgKIT4p20gkrW8bZjQiEh8rPn4yRdUVf6Z67+OLH3An5ZKNInn88Uf5+yN/Z8niRYha1NrmMrha4GZu2ca3xvM8KiqruPjSy/jyl79S0PEdxym+KMqy7tXfE735GKyag0ZBfq2m5hOP+B5Ymj9uX4JutD4hXtNhKrqjh11Jj1Oux9/GYtHp06ez7777tl+w7aTho/HUPnAlXuNqcpJsdc8UJR7V8DTKD1ALMuxk+l71SGkC7oRcstFGf/3zn3jgz38kGwSote0+YOoZoXvP3lzz1a9y1lnntPPZHcfZmlAj6ic9TmbSA3iL3yKMIiweRkM8GxKaFEqEac+y52qJJIEhwsfG7ez3PJ7UyTfTbY/Dt/ncn//sTkY9/TRjxk9ql1jb24p/3Ix94y9Y423zRq8lREASKSo/9zeq9z2xSBF2bi7ZKND411/nrp/+hJUrVmBt+Qr5CBr3aRDDp/bel7/89a9li8VxnM1FWBrfe4XGSQ/CrLFE2fVghAiPpM1hMQWPfrY+Fg8RIUEAVb3xDvsiNad/Hd9LbvU5EyZM4Cc//j5rV69h4ICBPPLYE+0Sa3vLLJxO3Z8uxdYtL2ja+5MEhaHHstO1jyOuwbpLNgpxww3XM+n11xEirJZ3PjYekM3/XYRURSUPPvww/foNKGdYjuN8QgRkZ0+i8f1XsO8+g66aDRKPa7TXu3BCA9RLYgcdRfXp36Zy6IhtPv7WW7/JmNGjCaMIA3xqr734y4M77tTA6n/cSHbyQzS12WuLppLylef/nJqjPleE6Do3l261wsSJEzn5xOOYNP51VG3ZEw34xC+EWrIN9Vx60YU8/+yocoXkOM4WeEDl0MPpffat1Fz9JP6ZP8LuvB+IwZOCOp23WFP58miXA0ic///odd2T20w0Ro8ezUknHs+r//43Ngyak6H99j+gdEF2ABWn3IDp2R9ThO9FPDmmBFMeItfBdyS1h9Yvue2i7r7rpzz9xBNsfHlXkTbP7RXLxjtXoijijtt/QqSWc845r4xROY6zJale/UiddC3RUVdQP+05slP/DgunIJFFVGnqJ0vz/zcU5VIMNt+EbWOCEuFhsHg2xIqHFS/eypmoRg44n27HX0t6lz22GduNX7+eNyZNJIxCRDU+u8QxhGHrFk52NhW9+5MdejyNUx9GsPGQU4FZYCgeVVEDweL3yY5/iOSRVxQ52s7FTaO0wOev+ByzP5qBqm234c5iMMZw63e+x2fOcQtHHacjyyiE054mmPx37NIPiNYtwjeQkRTGRs3rR+O3HxNvg2fTBmI2vxtCgdAkECQuU96zPxUn3EC3o7Z9sRs58il+9tM70K1s1TfG8Kvf3M+hh+zYRQYzy2az7vcXo+uWIDZoXlDbWhaflK0n51fgD/g0va57HM907CJvpeTKlW/DypUrOfO0U1mxfGm8lbWTUVVeHzeGHr37sPfee5c7HMdxtsIXSO62NxWHXowMO5Wosjfh+pX4Daviwn75kuOaH4z2NNzsjtsi+ER4KIiHbwSz/3l0u/gXVO1zwjbPf9111/DU449tc7G7MYYzzzqHXXfdtc2vtyPzq3sR1K9FZ70Gxmsu9d5aohCZePcR65YhqR4kBx1Sgog7BzeysRWr16zmgrM+QzbItd/qrRLxEwl+e/8f2G///csdiuM4LZSpXU7DlKfhzUcJlkzHqAU2jDpY8TZ5vKBY8ZEowAw4iMqjrqL6sEu2eY7f3/9bHnzwAaIgQHXbN1QVFSleHTOhTa+ps8g1rKPuN2cTLf0ArN3sa90SKoraJEnNEfkhZtcR9LjuaRKpqhJE3PG5ZGMLVqxcyYUXXEDQWE9HLzXcEgKkKip59KmR7NSnT7nDcRynFXJBhsZJj5J55znk44lI0BiXF9cNQ/tCfqAj2Q3/kM/S7bSbSFT33uoxlyxdyo1f/xoL5s4ljKK4RcJ2pCsq+M+Y14vwijqHtWP/TPDsbYSRjddvtJYakJBIEviqWGOoOvkb1Jx2Y/GD7QRcsvEJq1at4rxzPpPP9HeML01TLY6he+3Fgw/9vdzhOI5ToLrpr5KZ/Ag6dxLB+hX4onhYstZQ2X84idO+TfU+J23zGL+97z4e+Ouf4hYILXyPE2Cvvffhrw88VIRX0TkE2XrW3HceZtE0Qlo/shHT/DQMeKKYnfem6usvk06kihlqp+C2vn7ChRecT7gDJRpNVJXZM2fxne98p9yhOI5ToG77nkjfK/9I9ZcfperQy0hW1hBV7Uz6+K9S9eXHtploTH/3Xc4/50weeuAvAK16jxOB7j17tDn+ziSRqiK9/znk1G9DfVdpfq5VIVo+i4Z/31ucADsZt/V1I1dccTnZxvpOv0Zja9RGjH7lJcadcTpHH31MucNxHKdAlbvvQ+VlvyCz5BqSuUaqBm67/sVdd97JqKefaFNLhT59+hb4zM6r8tgvkn17FHbx220+lgKiIeGUh8gceiHpvoPafMzOxI1s5N15++3M+eijHTLR2KTZk4245aYbyheM4zhFk951r20mGu+88w7nnH0mI0c+hVXFFvr+JsKn9tizwCgL98EHH3DHHT9t9/M28ZNVpE++EZKVRSm6FqnBrllA46Qdtwrr1rhkA3j+2Wd57rlRJetxEm9Z2/CnXASNt/Cq8pWrvlS2OBzHKb1v3XwT11z1RVYsXYraCKvEfZQKIuzev18xw9uuRYsW8oX/voKpk9/Y4udzqxeTWbO45HGkDzgdb+Cn4w65agvaBtvEqMUTIffWE2SXflTEKDs+l2wAd9z+I6IwV7LjyyfSjXJR8jWR1fLB9HeY8saWf4kdx+ncTjzuaMaOGd18AyWq+VJghb3/iDEcdfSxxQxxu/7ni1/AQ1m7evkWP5957wUa7z2N1fedy+rn76ZhwbsEmbqix5FAqDj+GmyyO4igCrbABaMqSoiHrl5AZtLDRY60Y+vyaza+/e2bUWs3aWi2o9n4tWm+Q+xll1/BoYcdVs6wHMcpgZdeeolsNpsvRFickdT2XjB/ycUXUbt2LapKLrvlG0HpM5SgbhWmdhnhnInYCX8kV9mD5G4HkBp8BIkhI/D7DccvwpegathxZPofQDh7HBbBIyxolFrx8DTAmgS5qY9Qv88ZVO356bYH2Al06WRj5syZjHn1P/lfpNJMb4gIVkGMYJqGMJtKD9t8gR4BSlqhNP/6RKjp0Yvb7/gphx66Y5ccdpyuavnyZfm1Z8V5TxMRBg4aWJRjtcQVn7uchfPnbiheppaXXnyRU087bZPH+bsOI6reiah2GZ4GhI11+JlV6KrZ1L/7LLa6D9JnCJX99sMfeixmjyOpqKwpOK70EV+gduHb+Jm1+S9v67++RuPeMiEepmEdja/91iUbXcGvf/l/kJ+DK8VaCmMMqsp+B+zP8cefxD777MPBBx/c/Pl/vfACc+fNYeqUKbz/3nugtmR3EEaEg0Ycxr33/bYkx3ccp2NYtnRJ0Udpo6B9GrBde/XVzJn1EdgIEYMS3yotXrxks8cmanrhJ1KgIYqCRuQkgYfiaQT1y0nWLyc3dwLZ8Q/g1/RhfY8BJPY6kdQeR5EYfBC+afklsOrAs8i9/QzBOyMJTSIuGd9KKoYQn5RtRMUnmDOG9dNfpXrfE1t9rM6myyYbS5YsZurkyfkf5rYnGhuOoIjEbXvOv+hivnHzN7f6nNPPOKP57ytXruTnd9/J2LFj0DCEIiVAIiB+mquuuoorv/DFNh/PcZyObe7sOZDv1los++1/UBGPtmX/9/O7efvNKXEjuI0XsipMmzKJK79w5SaP970k9BgAq+YQkgAEL19y3Yog1pITgxUPYwOitYuw65aSmTuB3Jhq6D2URL+DSAw6HG/QIVTsNHi7MaaO/yrB7DGYxrqC590NUb78uWJy9WQm/tUlGzuyH//ge3GiUaTfyKbDGOMxZMgQHvz7Y616fp8+fbjz7p8ze+ZMvvylL9DY0NDmmESEdEUFf/7bwwxqx2FQx3HKZ83aVUU/pu+X9lJx11138czIJ7fa8HLN6jVb/Hep2S3eZYNgCNnkti+fsJh8qfGIeHG8iEC2Hln8DrnF75Kd/DCJdCXrdzmAxF7HkRh8OIl++5FMb97DpHLgATQedAk67nfxOQp4rRuPpBuUcO4E6meMoWpY+y7AbW9ddjfKW2++VZStrs2ru1Uxns+pZ36m1YnGxobuuSevvDaO3fsPwJjCvz2e53HoYUfw6mvjXKLhOF3I4o8XFHU6VkQ45rjSXQhfeeWVONEItzwtoaosXLxwi59L7LJ3/h1YkRa+ZgWsQqT5ha9RiDasReaMJvPCj6n96+dZ96tTWPW3L7P2jadoXDJzk+dXHH4FprpX0epueI1raPz3zwl22C0KsS45svHUU08hIi1qPtQiomAMx514It///g+LcsjHnxrJf11yMfPmz21VUtT0uq78n6v40lVfLkosjuN0HmGR132JCOl0aXp5jB03lu/d+s2tjmg0yWYyzJkzhyFDhmzy716/4UiqGpNt2HTqpYUUITQ+OQwGS0JzmMbVaGYt0YrZ6DtPQTpN/a4HY/oMITH4SFJDDsZ2H4jUr6Kti3AFJRIPf8FkGqc8S+LQc9p0vI6sS45sPP3UE1gbbf+BLSbU1NRwxx13FvGY8PBjj9OvX1xIZ6uJkWwoFCYidO9ew69/8zuXaDhOF/TGGxO3e+FuLWstw/ffdjn0QkyYMIFbvvGNFt1MiQiLFm4+uuH1GYiXrsEAtoDLmVFLOmogbRtI2BwKRJjmkY9AEjRmI5g7nmjyQ9Q9cRN1vzoFXTod1bbfrBq18XHCHJnx9xPtwKMbXTLZmP3Rh0U9nhHDVV+5pqjHbPLokyNJV1RudVhUFVQEjMehIw7jhZf/w8GHHFKSWBzH6dhEvI1q6hRn5DaZ9Ekliz+yccuNX4coaNFj1VrGvz5us383vfthu+2EkcIu0ipCZBJY8eKvl0h+ajxfhFEjRCNCDBEGz2YJM/VIlCtKWqDEi1lVgQVv0TDt2SIctWPqcsnG2LFjijd9AjSt2jj55FOLeMxN/fiOn2K8Lc94eRIvMvrKNddyj9vW6jhd2quvvFLUkQ0RYbd+/Yt2vCann3YKURS2+L1YgHXrNl8kmgK0emfQqHkhaCk1bSoo1viDFQ/J7xxSjdC3Hi3SkTueLpds/PvfLxV18ZSi1FRV06NH6dovH330MRx34omI2bRErjFC35134YGH/s6VV36hZOd3HKeTKHa5IFX69tm5qIc8/dSTqV2zOt7i2sL3YqvKvNlzt/g5f+AIrO2c0w+C4muAxSNn0mTnT6Nh6axyh1USXS7ZWLe2uLXzpfk/pXXHHXdSU1PdfCrP8zjiqKMZ+ezz7LnXXqUPwHGcDu+tt94q7gFF6F5TXbTDXXf1l6ldu6agnYDzPp63xX9P7jQESaRolzfiEojEA4Fk1EjYUEv40dhyh1QSXW43ytw5Jei0104p21VfuYZf/PxuMD433HgjF150SfucuB3Nnj2btWvX8OKLL+B7HlMmTQYDIiZeIJZv9CIihFFI//7xEK/v+wwffgDpikqOOfZYV469jaZMeYOpk6ewZs0aZs2eSe2atWCE+vr11K6ra74jFRF2231XNIo/HjhoED179uSY446jV+8+7LvvfuV8GV1OuNH20ZZuBf0kRZq39KsI+x1wYFFiu/5/v8qb06ahqgVMZcdRbYn06A/JCkxmPZ1zgCP/pqYWTwOCeZPg2B1vpLrLJRue5xWvkhcAQl3teuYvWMDA/sWf29zYhRddwssvv8x3v/cDdt9995Keqz396c9/5u1p05jx4fvU1tYhxoC18UrtpgdtpSLiwo8/bnoA8+bMQcXw+OOPEllL3z592HuffTjttDM4+eST2+fFdFIjR45k6tTJTH9vOsuWLUVstOkwtzZVM9jcgvkfN/990aKFqCrPP/csAvipNPsOH86hh47gC66CbcktWbxoQyJYhCrEghAEbd+5d+ON1zN50oSCp7AFQVX5xz/+waWXXrrJ5/ydh6DpGsisb3Oc5bAhsTMYQGs3L82+IxBt73Z+ZXbk4YcWdwEVCsbjvAsv5JZbvl204+7IZs6cyWOPPcb48eNYszqeu5WmrchNFzjZsJ239T+iccl4VJt36hjPY8Shh3H+BRdw3HHHFfcFdVJ/+P3vmTZtGm+9ORVD/uuebwzY1ncFyV/qgE1q2vTr15+zzzufz13x+baG36FNmjSJ118fR319A29OmxzvEsn/WLf2axtGAeedez5f/J//2e5jjzzicDSMd3gUmmxsPLJhPJ/XJ77R6mNs7KGHHuC+e++BqC3vu4oYjwsvuZSbbvrGJp+xCit/fSby8WSiImxHLScjQI9+dL9xNKk2NI3riLrcyIYxhqjI+9DVKqOeGcU3bv52/MPibNGDDz7As8+OYuHH8xHVTeZtN3n/3WiItbBcWDa9I49CbBQyacI4Jk98nZ69enLmWedw7XVfK+h1dGZT3pjEX/78J956c1r8Nc8nGJv8RhTh9mPjcaiNR0gWfDyf3957D7+59x5OOfV0Pn/lfzN06J5tP2EH8MLzz/HYo//gow9nxN2e8z/fbf1yGhFSLSiqNXbsmKI3cpQ2vqH9/e8P8dt7f93GRCM/0aDKgo8XbPY5IyDVfdp0/I7E2AgTZcsdRtF1uWSjNDVTlCgKuebqq/jd7/5QihN0anf99HaeefppROJV5YI23UBvRD/xUWFvcrLFb/BGyYu1rF65kocf+CsPPvgAnznrbG677XsFnaszeeBvf+WZJ59k2fKl2CgeRdq4CfknazIUOt//SYps8o1WQGw8PfbSSy/y8ssvceCBB/GNW765WXXIzmDpkiU8+OCDPPnk4/GNht20c7PQ9mWLIkLP7tu/y120IC5TXqz7HQF2373wqeHnn3+W+371q+aft2KYOXPLNZL8Hv0I8q+9aRIp1vS9kE1GbDqyQAxE7dNltz11ud0oFRXFLU7T/KsdRbz31pvxcKEDwB0/+SGfHnEwo55+ClUb3+mpNu9T3/SPbPKnUJ88jjaX6MnfYecfY61CFPHCqGc4/dSTGDlyZDFecofzj4cf4qzTTuZ3v7mXJUsWEUVR89eDjf4vqpv8KRZBt3hsAbARGoW8NW0Kn7v0Yn7ykx8V7bzt4ae3/4QLzj2LkU8+Fq9xiaLNRhY2/zlv3R+bX0x55lnbL2O9YsVKNpT0anvCLugmC05bY+HChdzxk9uJipRoxLMjyrp167b4eb/fwViTwhC/uYT4+YqixUj32pd6SUxF8XYAdRRdLtmo6da9JMfV/LTAIw89xJtvvlmSc3QWP739dj59+AieGzUKI4LtwMuCFKhdu5a777ydL3zhShqK0G23I3jhhec5/bRT+PU9v2T1mnirYUf9LjRNs/zz2Wc56aQTGDVqVLlD2qZ/vfA8JxxzOM898zRA0S6oWyLS8nvxmR/NQLWIU8Qi7L33p1r9tHnz5nHZZy/GtrA6aAuDAfG4fSstIfxd9sCrrAExqJfAl7jPiWIIJYHF4GlY1ES6FAQl1asfXqpbuUMpui6XbBS1Adsnjgtgbci1V3+Jd999t+jn6Oge/cffOf3Ukxk1auTmuxk6qKYYNYr4cPp7nHLySfzjH4+UO6w2ufzyS/nJD75P7erV6CeG9TsytRH1dbXceceP+f53v1PucLbolltu4sc/+D65TA6b/9kpxftJExGhf/8BrXlGUc9fWdm6O+yFCxfyuf+6jDDIFWXXn0i84dX4SW79zne3urg7uft+VJz3M7yDLiHVux8mkUYxpDRLSrN4RBtKkndQImARvCHHlDuUkuhyazYOOPAglixZXLq7PFVE4LZbb+GZZ18o1Vk6lGwux/9+7Vqmv/12Se/ySk3VYoMsv/rlL5k6dSo/+9n/lTukVvnTn/7En37/24129DTVVe64b7CfJPnE798vvcjbb09j5KiO8zt09pmns2rlSlTtNqo+FJeqYryW3RO+8/bbRW8t39qCgdddey22SIkGxK/f8zwuu/wKzj5n61NJnudTfdBZcNBZ5IJGMjMnYedPJrPwXWTBJLz6FVhJNLej74j5twBa2RN/n1PKHUpJdLmRjT0/9akSZ7eCWlixbDnnnnVGCc/TMbzy8kuccsJxvPPmm5060WgigEYRr48dw7Vfuarc4bTIokWLuPzSi/nzH+7fMJIh5Ce6O0+isTFrLcuXLufoIw5n3NgxZY1lwYIFnHLSCaxauWLDNEU73SGLCMMPPKhljzXFfDtXVAyDBw1u8TM+e/GFrFi2pM0JT9POExFBjMfZ557HdV+9rsXPTyYqqNnneHqccTN9r3qAbl9+Gv/0HyODj4Gqnhjfx7MBRprWdMVfN0UQtflESRG17TDtIhvOEYXI8Auo7rdvic9ZHl0u2TjuhBPb5TyqysoVK7ju6s5xwSrELd+4ie/dditBLlvkQmnlJSg2DHn7zWmcdvJJ5Q5nm0aNGsUlF13AvDmz0Y1XsO8A3w5VJQoDvvmNGxk39rWyxDBjxvtc+tmLWV9Xt8lFtJQXoU0WSYu0aJHmlClvxL+HRSNYhUEt3CH0hSsuZ+H8eaht+w2Hkp8+MYZzzj+fb3678Ck1D6jstw89TrmOvtc9QfernyX9X39DDvtvpPdgkkZI2AxJQqz4RJJAxWDxiCSBFVPahCN/7Mgk8Ku6023EZ0t3rjLrcsnGrrvuym679SvpPGuTyFreevNNvv3Nm0t+rvZ2ycUX5/f1l77TYjlIfmFrXd06Tju1Y1Yf/dGPfsidd/wEG4XYInai7GhUlVtu/gb/Gf2fdj/3jTfciA0CKNfPuUiLOkqn0+niTqEQtwDo02f79SvuvPN2Pvroo6IuBPc8j7POPY9vfevWoh0TIL3rnnQbfgp9LvslNV/7J6krHoATvkG40z74HngakCDCb25ZL5S0TpjE7zVpEyHH30DFoOKUhu+IulyyAXDsMe2zACfedm8Z89povrODJBwTJ47ntFNPYeH8ufHWxR31Cpen1lK3dg2nn9Q+I2ItdcP1X+XFfz4Xj2Y011bonFMm29O0gPe2b93C2HacUjnzjNNZu2oF5UzjBGnRjM1/Xi1mIha/3qpu218c+vO77uS5kSPj3U5F+jIZz+fMc87l220Y0WiJVHUvqvc/lT7n3EavG16i8vMPkjrhRuyAw6G6LykJSBKA+CX7zVLxwXh4n/4SPU/+3xKdpWPoksnG/954E15R5ze3TaOI114bzR//2LkLfk2YMIGvX38969au2WFHNLZEVamtW8dXr2v5vHEpnX7aKbwxcSIahRtVEtnxqbX84AftU4Dt5ptvYu2aVWXfyaNqOfzwT2/3cdlspmixSny7zV577LHNxz34wN945uknsFHYPPXR5nOLsN9+w7n11tvafKzW8JOVdNv3RHqcfSs9r3+e6uuexz//FzDsdLzqHojnIyJxtdI4UnSjv234f8u/B54oJpHGP+zzVJ73k6K/po6mSyYbAMP23bddplIg/vGLooi//OF3jOqkxaMmTprITV//GmKjeBFVF6OqTJs2hbvv/GlZ4zj91JOoXbM6Xzej7UXQOhNVpbGujtNPOr6k53n+ueeYOG4sWqYFzxuXo0smEi16zqwPZxTt/E2Xy8rKqq0+Zvz4cdx/7z2E0cY7c9q4MNQY+g8ewu/++Kc2HaetEkBl34F0P+oKel/1MDXX/ZP0Jb/BP+B86DUE8XyM5suGiWDx4vYLGBRDUx3TuB1A01HzBe3EYPLbeaM+e1Fx5m30uvgukl3gV7jLJhs33/It2nvY2VrL3Xfe3ukSjnHjxnHj9V8ragO7zshGESOfGcmY18qzWPH0U0+mdu3ast9tl5OqUrd+Pdd/9ZqSnePuu+/sEDurRGDAoEEteuy6dbVFPrdw4AEHbPFzY8eO4aYbbyzqGg0RYeDAwTz66ONFO2axpPoOpubQ8+h9xf30/PoLVF3+ByqO+jL0O5Ao3QOjIZ5YRARPFJ8QXyM84jIIcW0nDzV+PNVU1YuKAy+gx+f/RM0xXacTcpers9Fkr08NY/gBB/L2W9PaNeWIooi7/n979x0fRdX1Afx372xCSSihi5EqIh0EIYAiSBdEqiLS9AVBilgAERF9VBBEERAUFRVBqfIIKqKUB1FapEnvoVchkEIgyc7c94/ZDQkk2c3umdkknO/nk/d5JbPnTrbMnrnl3AnjAAl06NDRxpZ9ExkZiRGvvgwQzDLP6YQyoHSFsWPH4I91f9natploXLmjEw03wzCwdcsWLP/lF7Rr35409siRryKZcEjCPwKFCxX26si4mFjic1ZISr69AuiJE8cxauQI1xAeDSEkwsuWw/xF2S/RuFVQ/jAE1W4H1G6HIADOqK1w7l+N5ItHgBeFtQAAIABJREFUoJ3fDZF8A8b1GDidSQAEpAZo+cIgQopCFA6HVq4hgqu3Qb5SmQ9R5UZ33Bbzqe3cuRODXngeelKSbUMqbpqmYeToN7J1wrF+/XqMHP5ywLqTsyshJSIaPoTJU6bY0l7b1i0RcyU6m3wBZh9CaNj49xayeNeuJaDlo02yTQ+eFEDLNo/h7Xc8j+c/3KgBnOkkBz63LSU2RG697d9btWqB+CvRZLOEhBAIL1cBi3JAouGJMzEezuvX4Pz3GIyEKwAAkbcAHEXLQitSGsFSC/AZBtYdO4wCALVq1ULr1m2gaZrto96G7sQH48dhxfKfbW7ZO+fPnXMlGoG78LpLywshIKU0f1L9260lq8z/tn7CpDIMRG7eiEOE4+QZGdC/H2KuRFu+9DL1cylwc7Kf+VzD9RrcfB1u/rvrOTcrMSH1K2L9xFWFF1+km7T73ttjzR2JySKau+lm+ce9O6kQuL9KFY9txMbEkO6sCpjJxq3atG6B+KtX6J4fIXFP2XK5ItEAAEeeUOQtXBKhlSJQsFZbFKzVFgUqP4R8xe654xMN4A4eRnEb+9Z/8Ocfa3EtPt72tg1dx3vvvoMy5SqgWrXsVTWuT9/egM09GuZsbwHN4UBYkWIoU7YcHMEaGjSIQHJSMiAENE3Drl07ERcbi1OnTuHShfMpFQdT9qmwoQdAGU4Mf+Vl/LTcunLar776Cvbs+seWGg/uZ0y6Nv4yFBCaPwQ1atZCstOJqtWqonCRojB0A0ICV6/GYv+e3dA0iR3/7EByUhKkwwFDGRAG7Rd2huesDGyJjMTJkydRpkxW9g9J34YN683dgAnfQ/4UhFIQkJrnCaK/rvjF5zYyUrxYiTT/3aXD44iJjiZtwxEcjI+nTiWNybKvOz7ZAIBRo9/E2DGv29x96looZegY9MLzWL7id4SGZI9thZ/p8TRirlxJucO1tPteahBSIjz8HjRp0gQNG0agbr36mT7k6ad7pPz/SUmJWLNmNX77bQW2bd0Gw2lPASalgMuXL+OHHxaha9cnyePPm/c9Nm1Y73pPCvJegjSvq5CAlAgODsYjTZuifr36aNr80Sy9Hy9evIh169Zh3R9/YNu2LZDKgGHD50kocw7N7Nlz/Iozf/586Lpv26lbwYCAlBqefNLzeyv2Ku3kUAAQjptfDS8OeQHnzp8luxYIIaCkhm/nfIfSpcP9jsdyhjt6zkZq77z1Fn7/bTl0Xbdp/oYEcHOfhTx5grB02a8oXKSIDW1nbO7cOfhs+jTLEy8pJQwING/ZCr1798F9WdzwKSOLFy/E3LlzcenCBZLSyZ4UKlwIv62irWx58uQJPNWti9m9YGEfgXs46r4qVdC7z7NoRljK/8vPZ+KHRQsQFxcHAJYkrOaQh4DQHPhu3gJU8LK0dnr69++Hvf9sN28AhCArUa2EOewUnCf45tZtHi8v5n4dSUmJ2Lhxk8c2XnxxCLZu3kRXZ0MI1KzzAGZ+/iVGvPoKNq5fZ/b4kASX0IKC8P28BShbtixNTJYjcLKRylPdOuHUiZM2TcSTgLsIjDBXZufJmx8rVv0PefPksaH92x06fBjP9ekJPTnZdS9twReE6wvuuX798X/9B5DHd/vii88xb+63SEpMtPT11KTEkJdfRffuT5PF7NTpcZw/c8ayPMOdTNd54AG8MfYtS+8uJ0+agMWLFrkqD9By9/YoIVG3fkNMnz7d51iPNmuK6/Gxrng0yYaUEpUqV0GvPn3QvLl1Je9ffeUlbFr/F2my8VSPnpCaA/O/mwNhOGEQzGoTAJSUmLdgMcqX936DN5Y7cLKRSmxcHB5r0wo64RbJ3nJPCAvOE4wlS5ejaNGitrYPAC0feRjxCdcsiy8dQXi0RQu8++44y9q4Vd/evXH44D6LuvTNCZGV7q+KOXO/I4n41ptjsHrlShgGfZe+EhJCStxb6T6MHj0GVarcT95GerZsicTI4cOReD0BcG3PTsmdwK5a+yfy58+f5cdv37YNLw4aAJ3wPSIdQejYuQtGjBhJFjMjzR55GIkJ10hXiFSsWAlHjx6mS9SFgHAEYeGixbgn/B6amCxHuaNXo9yqYIEC+PSzz0mL1WSFUkBiYjI6d+6I69ev29r2+Hf+g4Qb1rQppEShwoUwbfoMWxMNAJg9Zw66desOqVkzG1xKgSOHD+HChQt+x9q0aSNWr14FpSwY/nFNvH1+wEDMnfudbYkGADz4YAOsXfcXwsKKmPNDiLm/EGdM820p8ratW2C4JhhTkFLDY4+1tyXRMNtzp700lFI4euQQaYJuQGD+/AWcaNzBONm4Rc2aNfHC4KEQDu/KBJNTCokJ1/BYm1aIjr5sS5M7duzAL8t/Jr/7V0pBSol6DzbAb6vWom7deqTxvfXS8OHo/kwvaMQJh4CAYZhfUl995X+J5Unvvw/lTCYf9hFSIqRAQSxc9AOefTZwFQuX/74KYcWKWzInSimF9Rs2+PTY/fv2AKDa20OiRp06eOPNN/2O5Y2oqCgkJNwgj6uQ/vJXX0hHEF4b+RrKli1HEo/lTJxspKNv32dR54F6Kd2zdkjdtSwBJCZcw5NdOuHaNeuGNdw++mC8JcNGDocDj3fshGnTZ5DHzqqhQ19E16eeJt6AzzVnQCls3ux5Il9mvvt2Ni5ePG9GFISvhZQIL1seq9esRXh44Gf+L//1NwA0X+ypKaXw77//Ys/evVl+bFw8zWdMCQElJcaNs2//nISEBMuuUSQrTxxBGDx0GDp37UZwRiwn42QjAzNmzEDVajVs30/TnJZpThy9fi0eQwdbN4kSABYtWoRjUccsuZv+v37PY5TF20RnxUsvv4JHHm1uFqWC/93OKQmiUrh08QJOnz7tc6wvvvicfD8OISXKV8h+1Rnffm88hCvpI/2aVAaW/bgkyw87fuwIzRerAkJDQ22db7V544aUpd7ZbfKdpmkYMnQYevTo4flglutxspGJL7+ZjYKFC9laylylroOpFA7u24/evXpa1t5Xs76gTzSEwLgJk/Bsv/6kcSmMe38iipUobtZtIoopoCCUgd9XLPfp8dM/mQbdmarUtCLozpcSVWvUwrz5i/yORa1Vq9aoU7e+63NFWPHVMLBvz64sP+xafAJJ80IApe4qRRLLWzFXr6T0Sman3X81TcOgoS9yosFScLKRCQHg95X/Q2howYCdgaEUjh4+iJeGDSOP/t13cxEXE0OabEjNgU5duqFZs2ZkMalNm/6ZWUyMMIlUysDOf/7x6bHz5n1PO19GCJQtXwGzArxVd2amffIJpKalJNckBHD6VNZ6l86fPUvTNswkO6JBQ7J43jhDeP5UpBQYNHQYejzTK9CnwrIRTja8sOCHJZCOINvvHNwpgKHr2LJ5Az6ZRlvad+6cbwFDJ7uzlFLisXbtMeK1USTxrFK2bDk0bd4Cyr3/B8HfrxRw8MD+LD9u6uSPaDe6kxKFwopg/oLs16ORmpQSj3foaFaTpAqqzF2VT5486fVD9u7bQ5p0JiYmksXyxpkzZ5GdBlCkEHi23/Po8Yx1vbEsZ+JkwwtFihTBBx9OhtQC83QJmGXNF8yfh7+33r4Toy9WrvwdcbGxoLpQCSFQpkxZvPHmWJJ4Vhs37n0I4mWYcfHxuHjxYpYes/THxRCg7NWQmDH9U7p4FnqmV2/S10BBwTAMLFni/byNy5dpV3w1atiINJ4n129cy065BhxBQehnYbE+lnNxsuGlxo0bY/z7H7j2DLC/h0NBwHAmY9iQwbhxw/+lbvO/mwsYumvE3L+/x7XLCz757HO/z8tODzaIAIT/f7+bFALX4uO8Pn7R/HlITnL6vRDIPctHkwK9evdGxUqV/Atok/DwcFSqXJmwZ8EsCB4fe9XrR+zauZuwcJVE8ZIlPB9H6Eo04S6sBJKTkzF48MBAnwbLhjjZyIKmzZph0ocfAwHq4YBSgKHj2b7+jYWeO3cOhw8dJJonYG473vWp7ihWrBhBPPv07fss6VJYZRhYunSZ18cvW/YjyWugYNZ3uPueMhg0aIjf8ezUqk1bstTdnG6qcOjwIa8fk+RMImodkJpExYr3ksXzhqHbuXmkF5TCju07sGjRwkCfCctmONnIosaNG+P9CR8AUrO9pLm5hMLAqePH8dVXs3wOM/fbb2EYBk0RIygULVkSr7xqT7VESnXq1EFowUKkMTXp/XN64thxv9pKPdtBCYEPPprsV7xA6NHjGbI7c+X6P5rwvnjb3j17yHo28ufPRxLHWwsWzLdpHyfvKQBKd+LjyR8F+lRYNsPJhg+aNm2G4SNfAxzBtrbr/nLRdR1fff6Zz3H+2rAeZHM1pMCLL71KEisQqlapQtaNrwDoXl783357LE1tB9eeOvUjGqNs2Zy5udU94fcQJb5mIaojR494/RhNcxBVDhUoUbyk33GyIjg4yO4RXe8oBWHoePrJroE+E5aNcLLhoy5duqLbk09Bag6zx8EGyrUXq9vLL2a9yzwqKgqX/71I1ilTsHAYmj/anCZYANR78EHSeDu3b/fquMhNm6GUf/vquitUSE3DmLE5Y2Jueu6rUoUmkAAgBAzDu9U9169fx+VL/5L1DtxdujRJHG9t2rABimrrd2JKKZw8eQKffpozJisz63Gy4YdXXnkFvfo+C6E5bGvTPZlRKYW//45EVNTxLD1+6ZIfILy8GHsiNQ39BwwiiRUopcPvSalmScGblSUXL1xA7JXL8C/VcLUnJKpUq4FiAdglmErt2nVoepdU1m708+XLB6Fo5jwIIZAnn73DKDDSFkQjXERMwtB1zJvzDbZv3xboU2HZACcbfho48AV0fKKTrQmHmzJ0jB/3nyw9ZuOmjWR3csF5gtG5c2eSWIHStGkz0oJa3jyzSxYvJPtakFKgW9ec3V1dOCwsIO0uWbyIbs6DUqj/YAOaWF7au3ePre35wjAMjBg+PNCnwbIBTjYIjBw1Cp26dDGXxdpZ2lwB+/buwa5d3pdoPnPmNCjmawgh0KRJU7/jZAek5ei9+PL6x8dKo+lxSA2t27QlixcIzVu0DMhExytXrtAFEwLBee2dw5VkwQ7B1JRSuB4fi5eH5axVUoweJxtERox4DU906AQhabcx90QYBuZ9N8erY1esWOH6YqWZENe2XTu/49yJjkVF0UwOFQL16tcnOKPAs3P/IbcjRw4TTdI1z71lqzZ+x/LW+XPncC0unvx5K0y8OkvBXEG3JXIzFi2YTxqb5SycbBB67fXX0aFjR2g21uFQysC6P9Z6dezhQ4cglPL5AqtSXdgMIRARYW+1xJwgT74Qj8ckJMQTtSZQL6IxUazACitaDEL4N+/APQdGeJlMX46+7NfydQUAQkEJA4pw3o83LkdHQ9Mkac+GIygYK9asBYQ5EZ0ijzF3sRbQdQNTPv4IcXHeF71juQsnG8RGjRqNdk90hNTs6eEwCzoJLF261OOx+/abNQX8vYgIAOXK58xllumjuTsUAKrVqJHpMbO//orsC0LTNHTv3p0kVqCVuquU36+C+y6/QCHvNk6MvmwOo/jcbqoHVihfwdcoPjl6lKZXJg3X8/fs//WDEJK+jJBSeL7fc8RBWU7ByYYFXn99DB7vaE4atWNMVSlgw4a/PB535PAhv5dbAgCEQNX7iZYrZgs0r5FZVCrzyaZx8XFkF/G8eW1e/WAhRVAJUykAAihV0rtt3s+ePWM+zs/XXwgBu1egHj50iPTaIoRAzZq1AADPD3gBFe6lL3mvlMKJEycwmQt+3ZE42bDIqFGjUa5CRWgW93C4FsJi107Pk0SvX09M9Rj/2ixYiHZsN5CoLtpCCJTw8EW3a9dOwrbs3YcjZxDQnU6vj3YPvPhDKYVK99m7H0008QZyAOBM9bxNmjwFcK2wo1xSq3Qn/rt4IbZsiSSLyXIGTjYsNG/efJQpU87SyW/mBCyFuLhYnD59JsPjtm/fBuVa4un3xmtCoG3bx/yKkV2sWrUSkmi8XQiBiIjMlz8GO4JI2gKAe8qUIYsVcAS7v7qnPteoXcvjsatXr3KNGvj/RSqlRCGbk++oo0dJ4wkhULvWzeetVKlS6NS5M9ln4yYFw+nEm2+8QRyXZXecbFhs/uIfACEtqyrsnrQpDB1OZ3KGx91IuA7p6uJXPiY/QrmKCAkgMSnjtnKSC2fPkO1xYyiFosWKZ3rMnj00u4wKwGMvSk5iwF0RVfh8J62UWbo9ONiL4SXDgHSPu/hMAEoASqJmzdp+xPEB5RCKayApT778af595MhRKFOmHEkieLMtAFCIu3oFg1/g3WHvJJxs2GDajBmQQXR3tBlZu/Z/Gf5u3/69MMgKGNGEyQ62b99ONowSEhKKAqEFMj0mOYlul1GlaCrBZgcUK7iEEOaQRiXPQxp//fUn4fAZUKasvb1Mp8+cJpyzYa7fSa90/6Sp06CRXrvM/idDKez4Zxt++snzxHaWO3CyYYN69epj4KAhllYZVQCuXr2a4e/PnbtA15jIPW+cQ/sPkNwlCiFQu47nu1tNo+vjyub1nLKEavdVIQSqVavm+UDCndkNQ6FY0WJ0Ab1qk7LqrYKQEjVr1rztd+GlS6Nz1yfJSvqnLrCudB0T3x+HS5cukcRm2Vtu+c7I9nr27IX77q8ckOJFAHDmzCmyWAKAEjn/m+7gwYO4GhdD0lEjBFCxguc7asrXX2RhO/s7gYKCw6GhXLlyHo/9Z/cOsmytYIFQFClShCSWN/773yWkyYYAEBSUcfXTl19+BaVL30XWnvtrRykFZRgYOpSri94JONmw0bhxE6Ckdb0bmb2Y/547l3JPIXwt6uUaUzcUkJwL5mwsWbLYr4t2mom2UkPLNp4rSFJ1fSsAZ05lPCE4x0m1OaCvE5iFEMgXkvkw1k0yZe6Sz+255ojk8bpNGlIKkOaZQiCscOb70/znvfchSFbWKdxcAySgDIWTx45i2tSPCWKz7IyTDRvdfffdeKBuPWv2T1Eq057hG4k3zIJe/tzHC3dTCqtWr/I9TjaxYsUKki26BYDQ0BBUrFjR/5PKgvMXztnanlXWrF4FSbTra/6Q/J6PA/DvxQt+J37mZ0mg0n33+RUnqyIjI2nnTSkgpGBopodUq1Yd7Tt0gCCZLJr25A1dx8L587Bjxw6C2Cy74mTDZp06daS5sKYjs7CxsbGkbRlE29QHyrx530NPSoK/V22zZLVArdoPUJyW9+0qhejoaFvbtIoQ3hYY9xBHSlS+r7J3xxJWjXU47N0PyUnwvk1NCKCyF0X6Ro9+E0WKF7fkZkkZBsaMGkkel2UfnGzYrEWLltb0bAiBsmXLZvhrspUoAKAUdu6kKU4VKPO/n+ux2qe3pBR4pGkzr46lnLMRF0ObQAbKpg0bSd6fyjDg9CIJ/v33FSTDWWaiCTRqZO8eQUePHSNfEJYvT16vjpv4wYeQjiCfl89nRCmFK1ei8cpLw0jjsuzjjks2VqxYgXfffSeg51CyeEm6uhuuq44QArVq1Un3kG/S7Mfhf8sKwKkTJ/2OEyhLFi9C9KVLZDt+5s2TD+3atffqeKeTsBqjUvh+7lyyeIGSlJRIEkdIiaYPN/V43KmTp9M+zsevbnfvSGKivfOX4mJiSOv2CCHRsLF3CVO1atXQus1jkBbtbv335g1YvHiBJbFZYN0xycax48cxsP9zePetN7Dq12UBPZdSpUuR9W5IGOauihDInz/98eo8QUHmbq9+Fh5OPbFU6U58PetLP6IFzpdffpZSTdUf7gJnDz/awuvHVK5ahaxjSykDa9dlXFslpzhx8gRJHAUgSff8xX/6zCm/90Nxtycg0K1bN79jZcWNhDjSnkolZJYSprFjx6JgoUKu6eJ0lFLQdQOTP/wQVzJZxs9yplyfbBw9ehSDBw9Er6efxM5//oFSgG4IfPvtNwE7pxIlS5LGEwIIDQlBqVLpV5TcsP5P2mEUmOv81/5vDWlMO0ycOAGxMXFk3dBSSgwYMMDr481y5UTzBZTCvt27SWIF0iWqXiYh0KlTF4/HnTlzlmzKgyQoRpYV+w/sh6FohzCEUGjWzLthQLcPP/oYQmqW1fcbOuQFiyKzQMnVycb48e+iV4+nsGPLljSbMxlK4Y9Mqm1abc/OXeS7wVa+P+OJcUI6LJkmEhV1FKdPn6UPbJHNGzdi2Y9LSHo1APPL7f77K2eY5KWnWvXbCyf5RSmMH/8ebUyb3Ui84XcMpZTX82GuxV/zuz3AfP3vIq0/4dnFCxcARdujoPuwIqt69epo+3gHCNdwCuVmbTAUjh4+gqlTptDFZAGXK5ON8ePfQ6P6dfHL0qXm+v1UEwGVEDAgcPjAAWzevDkg53eDsGQ1YF70ypUrn+Hvjx45aEm1SWUYmDRpPH1gi4wY+Wqaeg7+kkKgbdvHs/SYYkWLkE0SVa6aBb8sC+ywoD+ir1zBjYQEv+NIIVCyuHc9hlFRR0iGUQAgyIZtCFLbunUr6WdZCIF7K97r02PHjBmLsKLFLNj3SQGGjvnzvuPlsLlIrko2vv3mazRt8hCWL1tqVqdzbbSU5rOpAKEMGIaBGdOn2n6OBw8cQMwVuiWLCuYF46GHHs7wmPj4BEsqlyqlsO3vv3HgwH7y2NR69egOPSmJ7EIthEChsMLo+tRTWXpcj169yUo/A8L8e5TC2DGjiWLa63pCAk1PkxDIHxri1aEOSTWQpXD3PRmvALOCEMJ18nSf57wZzPXyxoSJH0A63FvR05JQeP21EcRRWaDkimTj+++/R7NHHsYXM2cg+UZCmqqQ7lp1bu5JTUopHD182CyQY6MlixeSlhoGBILz5EHDhunPJt+7dy8MQycftnEzdB0jR7xiSWwqvXt2x7GoI6TPgRACvXr39emxRcLoejcAc6LomlUrERUVRRaT2tWrMen++7KlS0E1gaKCF0XV/lizxizkRrTzbqlS9g6jbPl7s+t9TPderlLVi71kMlCjRg20adfOkvkbhmEgLuYqXhvxKnFkFgg5Otn4Z8cOtGndEjM+mYobCddgGCpr1xCl8NGkCZadX3qW//ILDKL6DoA5ObR6JhtPURfzupVSCtH//ovx771raTu+6t2rJ44ePgJdJ0zwhECxkqXQvUdPnx5erUYNunNxMQwDA/o9Sx6XwvLlv+Cll4am+ztHkIOkt0kIoKgX+5MEBZt7gBDt9+pVm5QcDtphGwGgYMGCfsUYM+YthBQsQF4/SAgB3TCw4a8/8fPyn0ljM/vlyGTjr7/+RK+eT2PwC88j9ko0lH5z8mfWcg2Fs6dP2zac0q9vb9e24ISbcQmJps2bZ/j7Y8eiLN8RXtcN/PrLT/h61hcWt5Q1vXr2wJFDB4h7kgBIDaPfeNPnh9er96AF49zAtfj4bJdwTJ86BRPHvYtSJdKfRBu5aRNNQwq4p4znIY2169a6yvb7T0iBiAx6FK1y5OhR2u1+BVC9uv/J74QPJsNhwa7WAoCu65g8cSIunMsd5fnvVDkq2bh27Rp69+qFkSNH4MihQzB0c/Kn8KOChKHr+H7OHLqLXga+n/MtDu7fR74veJ48edGly5MZ/v7oEeKLUwZ0Xcc3X83C1r//trwtTy5duoQnnngcRw8dBKgTDSFQvXpNNGjQwOcQXbo9aUkCqJTC3t27MaDfcxZEz7pJkyZh/vzvoTuTUb58mXSPEURLR4WUqFXHc8l40sRTKYSGeDdPJLsSQiIiIsLvOA/UqYOIhg0t29U66cZ1vPzyi5bEZvbIEclGXFwcXhk2FK0ebYIjB/cBzuSUL1CVkmr49iZ3X/THjvX9TtWTBfO/w2czPoHTMMjK4LiX+rVp3yHT4xJv0Czz84bT6cSwoYPww8KFtrV5q0ULF+CJdm3x79kz5iRh0ugKmqbhy1mz/I70QP2GUBYsGzQMHXt278KA/v3IYmbV1atX8Uz3blj2wwIoXQeERHiZcukee2DPbp/n0rhLZgsAyQooXLiwx8cc3LcXVIMo+UIL4O7wcJJY3li2bCmkazWVkQ0v3ZMmT0G+AgUt6bUzlMKJ48cxZfJHFkRndsh+79h0tG3TCps3bYQylCUTHZVSiI25gjatW5LHHv/uf/DJlCnQCe+olFKQUkJqEr169c302P3794N2i8jMGYaBKR9/iAkTxtnWptuwoUMw9eOPzAmxFsQXUkPvvjS9Bl26dIEg3Sf8JsMwsHv3TnTr1tWS+JmZOXMm2rdri2NRUeYcKihIIRAR0TDd40l6GoRAwYKhKOLF/IkbCddJPg4CQP78+fwPlAUy9SomordOyRK0BQZHjhwF4aAfTgEAQzewcNHCHL8v050qRyQb1VyzpanvU9NQCrFXotGmVQts3rzR73DnL1zAU1064tefl5EVkXJzd1XWrx+Bu+4qkemxzmR7920AzCGVn3/8EU926YRDhw5Y3t43X89C4wb1sOXvzTB0ixINIVCuYiU8P2AgSbxmzZqhSJGirteScGWK+391HWdOHMdDjSIw99vZZPEzsmrlSjzVrQvmzv4aelJiSq+SgIChFPLmvX2jr61btpD85UopBAd5t5HY+Qvnad4fQuC+e+3dWn7btq3kN1tBeYJJ47Vu3RoNGjYCpAb6xbBm/Y3XR71GHJfZIUckG3Xq1oV5SbbmTtBNKYXYq1fw0osvYsKE932OM+6dd9C5QzucOnUKhrKmX0EIYNgrwz0edzk62o4pG7cxDAOnT53Ec717YdTI4Th8+DB5G198/jlaPtoUsz6fad4hu7qYrXiXKCjMmzefNGarlq1dyQblC5Tqr1c6jOQkzPx0Ojp2eBwrVqwgbMe0fv1f6NWrJ95+czROnTgOdcveJApAkSLFEJLO3Ib4uFiSFQxCCFSr7t3yTboaJ7ZMhUojIYF2SFRKiWrVq5PGBIDJk6cgf0gI+c6wAFw3hZcxYoTnax/LXnJEsjFw4Auui5L1n26lzDX4y35cghaPNsXECeNKoyDvAAAUWklEQVRx7twZj49bufJ3DH5hIBpH1MPyX8zeDMMwYAj6p1gIgXoNGma6pbwbda9KVpgbK+n484+16PNMdwwa2B9LFi/yK+aSxYswoN9zaNigPmZ/PQvxcbHQdYO2XPItpKbhjTFjyeMOe+kl8p4NN/fzoQAoQ+HCuTN49z9voXOH9vj885mIvnzZ59g7dmzHR5MmocUjD2Pk8Fdw5OD+VEX00s5BEUJkWGWTcmWFNxMTN67/i7RU/UNNHiGJ5a1zqVZjCF/nuaR6rxkKkMKaIY/XRo2G5nBYMuyt6zo2/PkHlixZQh6bWcead5oF6tarh21btlhWnCo1AQUYCtfiYrHsv0vw04//RUhoKCrddz90pSAhzL1WhcDZ0ydw4fwFaFICSqXZ8EwIkaZUOs25AQYExr71H4/Hzpv3PQRx+75wv2b/bNuGndu346OPJqFq9RqoU7sOQgsUQJ8+fdN9XNTx4/jjf2tw+uRJRB0/gUP7dkNKafZipJr8KQTIJt7ecuYQWhAe79gR7Tt0tCA+0Pe5/8M3X80iTwpTPx/uZ0rpTpw/dxazv/ka33z9FcqUKYfqNWogPPxu3H9/FTRqlP4yzsWLF+LcufM4uG839u3bj+SkJCil0imel/7rUKVG+vvBnDp5Au4av/68fkIINGiQ/pyQ1A4cOECWlCooJCY7PR9I6OzZ82kSOp+es9T3bEKgcZOMKw/7o1WrVvjpp5+wY8tm+qXnMG+ipkyehLbt2iN/3jzk8Rm9HJNs9OjVF9u3bQd0ez/ggKuSXWwstm/bkvJvKZ9Z15p9Kz5Q6VGahn7/1x9Fixb1eKxhGDZODfXMrKytAF3Hvl07sW/3LkApfPHZDAC33526v4DdF1h3T4ltpAO1aj+AUaOsKwXe7/mB+HHpUkT/e9GyNlJTAKA7ISBw+kQUTp+IAoQ5QGmWwr7lNVDmOKBSRsoKqKwm/HoG276fP3cOJDOxlHcTx69fTyAtV//UUxkvObeCMzkJlP27QgjoTus+T9OnT8fDjRvCSEq0JL7udGLwwP74ZvYcS+IzWjliGAUAIiIiUKJEScvWcWckzUXMNcSScnGzedBWCYkyZcuhX//nvTr+wL79di5EyRKlFJRhfoEZug5D16E7nWl+DNdQlPLyy4SUkCgUFobPZs60vKkRw0ekXWlgC5XyvLqH/PT0XgNdT1PuPquvg7lvT5N0f3fuwnnzGP/+EEAIdOnieWv5Xbt2k0wyN5Mue1+vQ4cOIZl4srdSCs1btCCNeasxY9+C1Nx7pxAvRDcMHNq/DzOm2b/HFcu6HJNsAECnrl1tTzZupYRI82MnTZNYuHCx18dfjYlBdsw2FMRtz6M3P3YRQiC0QCh++22lLe01fbQ56j1YH9KipbC3ulmZ5mYxPI/Pv1/DHOn/e2Kie2M8//5ubxO1xOREmmWvQiBfPnu77mNjYyyoG2O91q3boEGDBpDEn1/39UAZOuZ9Pwd79uwhjc/o5ahko1fvPtC0wCYbQqk0P3ZxOBwY80bWJimeOB4VkJUongio255Hb35sOTchkK9AQaxa84ct7blNnf4pgvLmJ99fIj3qlnQDuP19fduPj19zSik81q79bf+ekJCAhLhY1/n4RirDrLFRxPOQIgAc3n/A57ZSvypKChQjrk/hyV/r/oAwbg55+DtHSQiBe8rc4+9peWXy1E+QLyQf6cor9/VAuXY+HjXyZZK4zDo5KtkAgAEDh0DTtECfhq2EFHi8Yye0bX/7RTszV69eteiMcichBEIKFMSaNWsD0v6UqZ/AULAl4bCLEOkvWL8WH082KbZQoUJeHacRlEYXEIACSpa0d7dXh4O2HgYAhBXyXHGVyqBBwyAsqb1hJrRXLl/B2LH0K8YYnRyXbDzTuw+KlihlXsRy0UU5Q5pEg4jGGPna61l62LFjx6A7ndYUnchFUmb3C4ECBQtjVYASDQCoXbu2OR/HvV13duyWygIBoFTJ9DdgW/rjEr/n4ShXG8W86NnYuGkjyeRiBQUhgHAby5QDwPat9CvxwooVI42Xmc7duqFW7bqWJdLKMLB61W9Y/jPvDptd5bhkAwBeH/0GhKbZP2nQZkIIlCtfHh9PnZblx168eMG1ZCZ3P0f+EkJA0zRUrFwVv69eE+jTQf/nB6B5ixbQpJbzeziEQMEM9isJDgr2u0NduNooX7Gix2OVa6k6lQIFQslieYvy/IUQuLeC5+eN0oyZM+FwBFnytlYAlNOJDz6wf5sE5p0cmWxERESgWbNmAZjBbw8FASElylWogPnzvZ8QmtrZ06chlFX1J3IPITXUrlsXc+fODfSppHjvvfGoUrWaq9s5ZyuWwd3zRpJdls33dvHixT0euXnjJr+Wp6ckRkpBSg2PNG3ucyxfHDx0gOTm6uZcB+Cuu+wdCgKA10aNgpDWVFwQAJITk9Gr59OWxGf+ybHf1u+Nn4j8oaG58qtUaBrKlq+AeQt8SzQAYN/ePVDZoKBXduSu2akFBeHZfs9j+gzrl7dm1axvZqNK9Wo5OqEWQqBipXvT/12qlTe+rjRSrjbqN/C8Rfr1awlmuz61lGqHWWFOSLT7daG6zqVM9JUa2j2e+Y7RVmjfoSMqVqps0RC4WY4g6vBhzJ79jQXxmT9y7pUMwH+X/gRp0Q6DgSI0Bzo80QnzF/hX1jvnLZKzj5ASYcWK4vNZX6N///6BPp0MffXVbNRv1Nj8YsuRw2EKmpb+5/P4sWM0d+rw7ov4SJR7bx7/54nkC8mP++6zbxO2yEiKXqC0BEBet8Nbc+bOhbKk106kFA787NNPsGPHdgvaYL7K0clGgQIF8erwkWap8BxOCQFoDnTu2g2vv561yaDp2bGd5oPm3s4+NxBCwOFwoFHjJli+YlXKbsLZ2ccfT0XPPs/CERxs3lUH+oSyQAiJzl26pfs7ipVSAkBo/hBUqlTJ47GxMTEk+ZoAYFhYdTM9Fy9cIIvlXuxUrHiJDPesscPgIUMgHEGkw7zuWEopaBB4a4x1lX9Z1uX4b5FOXbpi5Oujc/RyWCklQkMLYOIHH2L48BEkMRVoKpxqmobOXbvl+IROSomChcIwfuIkTJo8OdCnkyUvDBqMaTM+Q1BQELQcNmk0OfH2UtV79+4lKWCmAOjw7os/JjYOVDUe6tR5gCSOt44cPkI2Gd79rOsB2PYhtZ49e6Ny5coA6XVFwP2VpqBw6fIljBw5kjA+80fO/gZx6dCxM14e/ho0Tcv2E/jTllIChCMIEY0fwur//YEmTdIv6+yLS/9eMrsU/az8KB0OvDriNUyd8Tny5s8PIc1/t2avUlrCtQLBkA489Uwv/LZqNR62eadOKnXqPIB1Gzaj1gMPQmiaBVvT03D3vQghUDisMEqVLn3bMZcu/Qulbr5/fC3YJoRA5Sre9U4lurZnN3y85ImUJdKAbtjbs3HBVdadgnJ9cqvXqEEW01efTP80pZQ5DcP1A0ABhq5j/bq1WLLY97lvjE6uSDYAoEvXrhg56g0IIXNE/Q0hJPLmy4/x70/AR5OnkMdPqSng41Ph/i5zz1ivW68u1q5bj8fadTSHfKTIlvNCUpI5IQAtCI80b4HIyL/x4ovDAn1qJD6dORMDXxiM/KGhxBdqWpmV1nZvlZ6y+agf76Ngh+ehgNOnT98sIOb/Riy2D79dunwJlImlEAIOm0rjZyY0NBQDBgy0rFdaQEAZOqZM+Qg3kpIsaYN5L9ckGwDQoWNH/LD0Z9xdpiyQcveX3QgIqaFdhyew9s/1aNq0GXkLP/74o/8Fk1wPD8kfkubfx4wdi8VLlqFmnTrQghzZ4jlO/bcKIaEg0Kx5C3w3bwHef39iAM/MGr379MXq/61Dy1ZtYUgNIhsMcbnfBwpmsT3pCMJDTZqme+zevXvJ2q1Vu47HY1at/J10gm1hLyuWUjl18gT5/OCIRo1pA/qoT58+qHBfZUtryujJyRg2eJBl8Zl3An+VInbXXXdh8Q//RY9nekNlk14OIYQ5yVJqeLR1G2yI3IrRY960rL3r1xNI4gghUKVKldv+PTw8HDNnzsK3c+ehRs0akFJCSmn7sIr7tdU0DZqmoVBYGB7v2AmbtmzHuPcnokKFCjafkb3efucdREZuwWPtOkBqWkBeAzf3RGIhJWo/8CDmL1yM119/I91jb9y4Doo7dQHz7tgTXdeJvswUpBRo+qi9NTacBv2QZb68+Ygj+m7OnO8AIV0DPL7vw5MRpRT27PoHn03PenFERifXJRtuQ4cOxW8rV6FBw4bmRfCWi016H95bN6jy5icjKbUcpERwniC0aNUamyK34L33xpP+nek5cuTwzf/w43OrACQnZzw+XbFiJXw+azYWLVmK1m0fQ758IZCSrkcpozhpStVLDQ0aNsKbb7+D31auwajRY0jazknGjB2LDZu34IVBQ1CiVCk4NA1SZl7OP8uvUHq31kIAQsARFIS7w8PxXL/nsTFyKz6dORNlypTJMNTunTtTXkMpRMrQp8zij9AcaPTQQx5PfcOGjWZ7UkIImeV2pOuxUjogNQdKlLRvE7ZDhw4h8UaiT89Puj9SAkKieYuWtv0N3hg4aDCkIwjC1VNH8rem+gGA77+bg717dwf4L71zCZXba34DiI6OxpTJH2Ld2rVwOpPNbvdUlfTcfJlMmTIhzv3fUsIQEkopVK9aDU92745Wrdv4+RdkzZAhg7EtcjPc6ZNvk0QVNE3DtM++xAN1PHdVu61YsRybN2zApk2bEB8f5wql0vyv12845Zp7Ydalds1YFSgaVgTVqtfAY+3ao8kjTb0+tzvFpUuX8M3Xs7Bx/QacP38WUoiUoSalbr4bvH0dzJfg5v2mlBIOKVH+vsqoX78+Xhg0JEvnt2njBuTPnx8njh33uaqnUgYaPvQISpUq4fHY48eP49Spk7hxIxFK6bgWGwchvL/PUsrAXeH3ICwsDCEhBRAefvukVyvt2r0bCfFxOHPmDLQsnPetlDJQtkJF3LhxA40aNSI8QxrHjh9HcnIy/r14EefPnfXrb02P05mMehERKFe2HGlc5p07ItlI7c8//8TPP/+MHdu34nrCNShDpSwTFZlMartVyhi1EBAQEFIgLKwoIhpGoEFEY7Rs2cK6P8KDp59+EsePHjX/Jh+TDQFAahKTPv4EDRs29Ok8jp84jj/XrcOxo4dxYP8BnDx1EoBIk+xl2L7rzrxQoTCEhoai3oN1UfHeSqhWrYa5ZI55xelMxupVK7Ft6zbs2b0b1+LjEX01GspQMFTG7wx3dU4hBIKkxF13342K91ZEsaLF0aJ1K1SvXtPOP4MxlsPdccnGrRYvXoh9+/YhNiYG+/bugTPZCUM5IYQDN65fN78YhbmMKiQ0FAIGdB2oWrUagoMdKFuhAu69tzLatWsX6D8lxcMPNYIzMRH+9WwAjqAg/LUxkvbkXBYsmJ+qumTqt6BAvjx50L6D/aWU7zRLFi+GAQUJAeOWNFvXDXTv3j1AZ8YYy23u+GQjMwcPHoTT6YRhGChXrhwKFCgQ6FPySqOGD0Lphl89GwAQHByMdRs2E58dY4yxO032XaifDeTE7votkZHmbq8p8yN8SzSEEChfMf1NtBhjjLGsyLWrUe5UsXExZDUFQgt4XlbIGGOMecLJRi6zZXMkWbJRsoR9S/wYY4zlXpxs5DIyyEFWEufeSjyMwhhjzH+cbOQyW7duIdkhUgiBEsW5Z4Mxxpj/ONnIZTRkXjnSa1KiectW/sdhjDF2x+NkI5c5efIESc+Gr5UdGWOMsVvx0tdchqJXQwiB8LvDCc6GMcYY456NXGXFihU0K1GUSlXdkzHGGPMPJxu5SMzVqyRDKBACNWvz3heMMcZocLKRi5w+eZxs2avhzHhrecYYYywrONnIRcxdVf0nhMAjjwZu11rGGGO5Cycbuci1+HiSOAKARrF8ljHGGAMnG7lKVNQxmmWvSqFh48YEZ8QYY4xxspGrOJ3JPj9WperJkEF5AO7ZYIwxRoSTjVxi29a/oQgKcQkhULp0aYIzYowxxkycbOQSefPko1n2CqBo0WIkcRhjjDGAk41cY/mvv5LFKla8KFksxhhjjJONXEJqgFIKvs60SP3IypWr0JwUY4wxBk42co3t23YAgF9DKcq1YyzPDWWMMUaJk41cQind7NmQvmcKQpgTRJ95pifhmTHGGLvTcbKRSxw7dtzskfChY0O4fgBAk/yWYIwxRou39swlihYrhpDgPDCzjaz3buhCAEpHsaLFyc+NMcbYnU0oqvWSjDHGGGPp4D5zxhhjjFmKkw3GGGOMWYqTDcYYY4xZipMNxhhjjFmKkw3GGGOMWYqTDcYYY4xZipMNxhhjjFmKkw3GGGOMWYqTDcYYY4xZipMNxhhjjFmKkw3GGGOMWYqTDcYYY4xZipMNxhhjjFmKkw3GGGOMWYqTDcYYY4xZipMNxhhjjFmKkw3GGGOMWYqTDcYYY4xZipMNxhhjjFmKkw3GGGOMWYqTDcYYY4xZipMNxhhjjFmKkw3GGGOMWYqTDcYYY4xZipMNxhhjjFmKkw3GGGOMWYqTDcYYY4xZipMNxhhjjFmKkw3GGGOMWYqTDcYYY4xZipMNxhhjjFmKkw3GGGOMWYqTDcYYY4xZipMNxhhjjFmKkw3GGGOMWYqTDcYYY4xZipMNxhhjjFmKkw3GGGOMWYqTDcYYY4xZipMNxhhjjFmKkw3GGGOMWYqTDcYYY4xZipMNxhhjjFmKkw3GGGOMWYqTDcYYY4xZipMNxhhjjFmKkw3GGGOMWYqTDcYYY4xZipMNxhhjjFmKkw3GGGOMWYqTDcYYY4xZipMNxhhjjFmKkw3GGGOMWYqTDcYYY4xZipMNxhhjjFmKkw3GGGOMWYqTDcYYY4xZipMNxhhjjFmKkw3GGGOMWYqTDcYYY4xZipMNxhhjjFmKkw3GGGOMWYqTDcYYY4xZ6v8BMV2SYCoV4FUAAAAASUVORK5CYII=;" vertex="1" parent="1">
          <mxGeometry x="260" y="479.88" width="70" height="40" as="geometry" />
        </mxCell>
        <mxCell id="rQX5XiQ9qI0IQF0qjAlr-8" value="&lt;font style=&quot;font-size: 11px;&quot;&gt;Vehicle and Location Performance Metrics Job&lt;/font&gt;" style="text;html=1;align=center;verticalAlign=middle;whiteSpace=wrap;rounded=0;" vertex="1" parent="1">
          <mxGeometry x="245" y="416.63" width="105" height="30" as="geometry" />
        </mxCell>
        <mxCell id="rQX5XiQ9qI0IQF0qjAlr-9" value="&lt;font style=&quot;font-size: 11px;&quot;&gt;User and Transaction Analysis job&lt;/font&gt;" style="text;html=1;align=center;verticalAlign=middle;whiteSpace=wrap;rounded=0;" vertex="1" parent="1">
          <mxGeometry x="242.5" y="518.1899999999999" width="105" height="30" as="geometry" />
        </mxCell>
        <mxCell id="rQX5XiQ9qI0IQF0qjAlr-10" value="" style="endArrow=classic;html=1;rounded=0;exitX=1;exitY=0.5;exitDx=0;exitDy=0;exitPerimeter=0;entryX=0;entryY=0.5;entryDx=0;entryDy=0;" edge="1" parent="1" source="lpYAadG1dDYZqmT2P7qw-1" target="rQX5XiQ9qI0IQF0qjAlr-4">
          <mxGeometry width="50" height="50" relative="1" as="geometry">
            <mxPoint x="130" y="470" as="sourcePoint" />
            <mxPoint x="180" y="530" as="targetPoint" />
          </mxGeometry>
        </mxCell>
        <mxCell id="rQX5XiQ9qI0IQF0qjAlr-11" value="&lt;font style=&quot;font-size: 14px;&quot;&gt;Extract&lt;/font&gt;" style="text;html=1;align=center;verticalAlign=middle;whiteSpace=wrap;rounded=0;" vertex="1" parent="1">
          <mxGeometry x="140" y="453.25" width="60" height="30" as="geometry" />
        </mxCell>
        <mxCell id="rQX5XiQ9qI0IQF0qjAlr-12" value="&lt;font style=&quot;font-size: 14px;&quot;&gt;Transformation&lt;/font&gt;" style="text;html=1;align=center;verticalAlign=middle;whiteSpace=wrap;rounded=0;" vertex="1" parent="1">
          <mxGeometry x="265" y="585" width="60" height="30" as="geometry" />
        </mxCell>
        <mxCell id="rQX5XiQ9qI0IQF0qjAlr-13" value="" style="sketch=0;points=[[0,0,0],[0.25,0,0],[0.5,0,0],[0.75,0,0],[1,0,0],[0,1,0],[0.25,1,0],[0.5,1,0],[0.75,1,0],[1,1,0],[0,0.25,0],[0,0.5,0],[0,0.75,0],[1,0.25,0],[1,0.5,0],[1,0.75,0]];outlineConnect=0;fontColor=#232F3E;fillColor=#7AA116;strokeColor=#ffffff;dashed=0;verticalLabelPosition=bottom;verticalAlign=top;align=center;html=1;fontSize=12;fontStyle=0;aspect=fixed;shape=mxgraph.aws4.resourceIcon;resIcon=mxgraph.aws4.s3;" vertex="1" parent="1">
          <mxGeometry x="490" y="416.63" width="73.5" height="73.5" as="geometry" />
        </mxCell>
        <mxCell id="rQX5XiQ9qI0IQF0qjAlr-16" value="" style="endArrow=classic;html=1;rounded=0;exitX=1;exitY=0.75;exitDx=0;exitDy=0;entryX=0;entryY=0.5;entryDx=0;entryDy=0;entryPerimeter=0;" edge="1" parent="1" source="rQX5XiQ9qI0IQF0qjAlr-6" target="rQX5XiQ9qI0IQF0qjAlr-13">
          <mxGeometry width="50" height="50" relative="1" as="geometry">
            <mxPoint x="413" y="430" as="sourcePoint" />
            <mxPoint x="440" y="453" as="targetPoint" />
            <Array as="points">
              <mxPoint x="410" y="407" />
              <mxPoint x="410" y="453" />
            </Array>
          </mxGeometry>
        </mxCell>
        <mxCell id="rQX5XiQ9qI0IQF0qjAlr-18" value="" style="endArrow=none;html=1;rounded=0;" edge="1" parent="1">
          <mxGeometry width="50" height="50" relative="1" as="geometry">
            <mxPoint x="330" y="516" as="sourcePoint" />
            <mxPoint x="410" y="450" as="targetPoint" />
            <Array as="points">
              <mxPoint x="410" y="516" />
            </Array>
          </mxGeometry>
        </mxCell>
        <mxCell id="rQX5XiQ9qI0IQF0qjAlr-19" value="&lt;font style=&quot;font-size: 14px;&quot;&gt;Transformed Data in S3&lt;/font&gt;" style="text;html=1;align=center;verticalAlign=middle;whiteSpace=wrap;rounded=0;" vertex="1" parent="1">
          <mxGeometry x="491.75" y="492.25" width="70" height="30" as="geometry" />
        </mxCell>
        <mxCell id="rQX5XiQ9qI0IQF0qjAlr-21" value="" style="sketch=0;outlineConnect=0;fontColor=#232F3E;gradientColor=none;fillColor=#8C4FFF;strokeColor=none;dashed=0;verticalLabelPosition=bottom;verticalAlign=top;align=center;html=1;fontSize=12;fontStyle=0;aspect=fixed;pointerEvents=1;shape=mxgraph.aws4.glue_crawlers;" vertex="1" parent="1">
          <mxGeometry x="646.5" y="414.69" width="63.5" height="63.5" as="geometry" />
        </mxCell>
        <mxCell id="rQX5XiQ9qI0IQF0qjAlr-22" value="Glue Crawler" style="text;html=1;align=center;verticalAlign=middle;whiteSpace=wrap;rounded=0;" vertex="1" parent="1">
          <mxGeometry x="646.5" y="479.88" width="60" height="30" as="geometry" />
        </mxCell>
        <mxCell id="rQX5XiQ9qI0IQF0qjAlr-23" value="" style="sketch=0;outlineConnect=0;fontColor=#232F3E;gradientColor=none;fillColor=#8C4FFF;strokeColor=none;dashed=0;verticalLabelPosition=bottom;verticalAlign=top;align=center;html=1;fontSize=12;fontStyle=0;aspect=fixed;pointerEvents=1;shape=mxgraph.aws4.glue_data_catalog;" vertex="1" parent="1">
          <mxGeometry x="750" y="413.2" width="60" height="64.99" as="geometry" />
        </mxCell>
        <mxCell id="rQX5XiQ9qI0IQF0qjAlr-24" value="Glue Catalog" style="text;html=1;align=center;verticalAlign=middle;whiteSpace=wrap;rounded=0;" vertex="1" parent="1">
          <mxGeometry x="750" y="483.25" width="60" height="30" as="geometry" />
        </mxCell>
        <mxCell id="rQX5XiQ9qI0IQF0qjAlr-25" value="" style="endArrow=classic;html=1;rounded=0;entryX=0;entryY=0.5;entryDx=0;entryDy=0;exitX=1;exitY=0.5;exitDx=0;exitDy=0;exitPerimeter=0;" edge="1" parent="1" source="rQX5XiQ9qI0IQF0qjAlr-13" target="rQX5XiQ9qI0IQF0qjAlr-20">
          <mxGeometry width="50" height="50" relative="1" as="geometry">
            <mxPoint x="570" y="483.25" as="sourcePoint" />
            <mxPoint x="620" y="430" as="targetPoint" />
          </mxGeometry>
        </mxCell>
        <mxCell id="rQX5XiQ9qI0IQF0qjAlr-26" value="" style="endArrow=classic;html=1;rounded=0;" edge="1" parent="1" source="rQX5XiQ9qI0IQF0qjAlr-21" target="rQX5XiQ9qI0IQF0qjAlr-23">
          <mxGeometry width="50" height="50" relative="1" as="geometry">
            <mxPoint x="740" y="445.69" as="sourcePoint" />
            <mxPoint x="796.9606090909092" y="430.66964999999993" as="targetPoint" />
          </mxGeometry>
        </mxCell>
        <mxCell id="rQX5XiQ9qI0IQF0qjAlr-27" value="" style="sketch=0;points=[[0,0,0],[0.25,0,0],[0.5,0,0],[0.75,0,0],[1,0,0],[0,1,0],[0.25,1,0],[0.5,1,0],[0.75,1,0],[1,1,0],[0,0.25,0],[0,0.5,0],[0,0.75,0],[1,0.25,0],[1,0.5,0],[1,0.75,0]];outlineConnect=0;fontColor=#232F3E;fillColor=#8C4FFF;strokeColor=#ffffff;dashed=0;verticalLabelPosition=bottom;verticalAlign=top;align=center;html=1;fontSize=12;fontStyle=0;aspect=fixed;shape=mxgraph.aws4.resourceIcon;resIcon=mxgraph.aws4.glue;" vertex="1" parent="1">
          <mxGeometry x="635.88" y="364.13" width="25.87" height="25.87" as="geometry" />
        </mxCell>
        <mxCell id="rQX5XiQ9qI0IQF0qjAlr-28" value="Glue" style="text;html=1;align=center;verticalAlign=middle;whiteSpace=wrap;rounded=0;" vertex="1" parent="1">
          <mxGeometry x="650" y="360" width="60" height="30" as="geometry" />
        </mxCell>
        <mxCell id="rQX5XiQ9qI0IQF0qjAlr-29" value="&lt;font style=&quot;font-size: 14px;&quot;&gt;Load&lt;/font&gt;" style="text;html=1;align=center;verticalAlign=middle;whiteSpace=wrap;rounded=0;" vertex="1" parent="1">
          <mxGeometry x="413" y="453.25" width="60" height="30" as="geometry" />
        </mxCell>
        <mxCell id="rQX5XiQ9qI0IQF0qjAlr-30" value="" style="endArrow=classic;html=1;rounded=0;exitX=1;exitY=0.5;exitDx=0;exitDy=0;" edge="1" parent="1" source="rQX5XiQ9qI0IQF0qjAlr-20" target="rQX5XiQ9qI0IQF0qjAlr-31">
          <mxGeometry width="50" height="50" relative="1" as="geometry">
            <mxPoint x="930" y="440" as="sourcePoint" />
            <mxPoint x="920" y="453" as="targetPoint" />
          </mxGeometry>
        </mxCell>
        <mxCell id="rQX5XiQ9qI0IQF0qjAlr-31" value="" style="sketch=0;points=[[0,0,0],[0.25,0,0],[0.5,0,0],[0.75,0,0],[1,0,0],[0,1,0],[0.25,1,0],[0.5,1,0],[0.75,1,0],[1,1,0],[0,0.25,0],[0,0.5,0],[0,0.75,0],[1,0.25,0],[1,0.5,0],[1,0.75,0]];outlineConnect=0;fontColor=#232F3E;fillColor=#8C4FFF;strokeColor=#ffffff;dashed=0;verticalLabelPosition=bottom;verticalAlign=top;align=center;html=1;fontSize=12;fontStyle=0;aspect=fixed;shape=mxgraph.aws4.resourceIcon;resIcon=mxgraph.aws4.athena;" vertex="1" parent="1">
          <mxGeometry x="920" y="414.25" width="78" height="78" as="geometry" />
        </mxCell>
        <mxCell id="rQX5XiQ9qI0IQF0qjAlr-32" value="&lt;font style=&quot;font-size: 14px;&quot;&gt;Athena to query data&lt;/font&gt;" style="text;html=1;align=center;verticalAlign=middle;whiteSpace=wrap;rounded=0;" vertex="1" parent="1">
          <mxGeometry x="923.5" y="500" width="71" height="30" as="geometry" />
        </mxCell>
        <mxCell id="rQX5XiQ9qI0IQF0qjAlr-35" value="" style="endArrow=classic;html=1;rounded=0;" edge="1" parent="1">
          <mxGeometry width="50" height="50" relative="1" as="geometry">
            <mxPoint x="50" y="680" as="sourcePoint" />
            <mxPoint x="1000" y="680" as="targetPoint" />
          </mxGeometry>
        </mxCell>
        <mxCell id="rQX5XiQ9qI0IQF0qjAlr-36" value="&lt;font style=&quot;font-size: 14px;&quot;&gt;Orchestration&lt;/font&gt;" style="text;html=1;align=center;verticalAlign=middle;whiteSpace=wrap;rounded=0;" vertex="1" parent="1">
          <mxGeometry x="503.5" y="650" width="60" height="30" as="geometry" />
        </mxCell>
        <mxCell id="rQX5XiQ9qI0IQF0qjAlr-37" value="" style="sketch=0;points=[[0,0,0],[0.25,0,0],[0.5,0,0],[0.75,0,0],[1,0,0],[0,1,0],[0.25,1,0],[0.5,1,0],[0.75,1,0],[1,1,0],[0,0.25,0],[0,0.5,0],[0,0.75,0],[1,0.25,0],[1,0.5,0],[1,0.75,0]];outlineConnect=0;fontColor=#232F3E;fillColor=#E7157B;strokeColor=#ffffff;dashed=0;verticalLabelPosition=bottom;verticalAlign=top;align=center;html=1;fontSize=12;fontStyle=0;aspect=fixed;shape=mxgraph.aws4.resourceIcon;resIcon=mxgraph.aws4.step_functions;" vertex="1" parent="1">
          <mxGeometry x="490" y="690" width="85.5" height="85.5" as="geometry" />
        </mxCell>
        <mxCell id="rQX5XiQ9qI0IQF0qjAlr-38" value="&lt;font style=&quot;font-size: 14px;&quot;&gt;Step Functions&lt;/font&gt;" style="text;html=1;align=center;verticalAlign=middle;whiteSpace=wrap;rounded=0;" vertex="1" parent="1">
          <mxGeometry x="485.25" y="775.5" width="96.5" height="30" as="geometry" />
        </mxCell>
        <mxCell id="rQX5XiQ9qI0IQF0qjAlr-42" value="AWS Cloud" style="points=[[0,0],[0.25,0],[0.5,0],[0.75,0],[1,0],[1,0.25],[1,0.5],[1,0.75],[1,1],[0.75,1],[0.5,1],[0.25,1],[0,1],[0,0.75],[0,0.5],[0,0.25]];outlineConnect=0;gradientColor=none;html=1;whiteSpace=wrap;fontSize=12;fontStyle=0;container=1;pointerEvents=0;collapsible=0;recursiveResize=0;shape=mxgraph.aws4.group;grIcon=mxgraph.aws4.group_aws_cloud_alt;strokeColor=#232F3E;fillColor=none;verticalAlign=top;align=left;spacingLeft=30;fontColor=#232F3E;dashed=0;" vertex="1" parent="1">
          <mxGeometry x="-1.75" y="238.19" width="1041.75" height="590" as="geometry" />
        </mxCell>
      </root>
    </mxGraphModel>
  </diagram>
</mxfile>
